<svg xmlns="http://www.w3.org/2000/svg" viewBox="0 0 500 500"><g id="freepik--background-complete--inject-1"><rect y="382.4" width="500" height="0.25" style="fill:#ebebeb"></rect><rect x="416.78" y="398.49" width="33.12" height="0.25" style="fill:#ebebeb"></rect><rect x="322.53" y="401.21" width="8.69" height="0.25" style="fill:#ebebeb"></rect><rect x="396.59" y="389.21" width="19.19" height="0.25" style="fill:#ebebeb"></rect><rect x="52.46" y="390.89" width="43.19" height="0.25" style="fill:#ebebeb"></rect><rect x="104.56" y="390.89" width="6.33" height="0.25" style="fill:#ebebeb"></rect><rect x="131.47" y="395.11" width="93.68" height="0.25" style="fill:#ebebeb"></rect><path d="M237,337.8H43.91a5.71,5.71,0,0,1-5.7-5.71V60.66A5.71,5.71,0,0,1,43.91,55H237a5.71,5.71,0,0,1,5.71,5.71V332.09A5.71,5.71,0,0,1,237,337.8ZM43.91,55.2a5.46,5.46,0,0,0-5.45,5.46V332.09a5.46,5.46,0,0,0,5.45,5.46H237a5.47,5.47,0,0,0,5.46-5.46V60.66A5.47,5.47,0,0,0,237,55.2Z" style="fill:#ebebeb"></path><path d="M453.31,337.8H260.21a5.72,5.72,0,0,1-5.71-5.71V60.66A5.72,5.72,0,0,1,260.21,55h193.1A5.71,5.71,0,0,1,459,60.66V332.09A5.71,5.71,0,0,1,453.31,337.8ZM260.21,55.2a5.47,5.47,0,0,0-5.46,5.46V332.09a5.47,5.47,0,0,0,5.46,5.46h193.1a5.47,5.47,0,0,0,5.46-5.46V60.66a5.47,5.47,0,0,0-5.46-5.46Z" style="fill:#ebebeb"></path><rect x="301.25" y="115.05" width="99.62" height="110.17" transform="translate(702.12 340.27) rotate(180)" style="fill:#e0e0e0"></rect><rect x="298.07" y="115.05" width="103.32" height="110.17" transform="translate(699.46 340.27) rotate(180)" style="fill:#f0f0f0"></rect><rect x="302.44" y="118.56" width="94.74" height="101.6" transform="translate(699.63 338.72) rotate(180)" style="fill:#fff"></rect><rect x="302.44" y="118.56" width="2.74" height="101.6" transform="translate(607.62 338.72) rotate(180)" style="fill:#e0e0e0"></rect><rect x="349.79" y="146.72" width="2.74" height="92.54" transform="translate(158.17 544.15) rotate(-90)" style="fill:#e0e0e0"></rect><rect x="302.44" y="187.02" width="96.21" height="4.6" transform="translate(701.1 378.64) rotate(180)" style="fill:#f0f0f0"></rect><circle cx="190.54" cy="123.9" r="20.39" transform="translate(-27.73 60.53) rotate(-16.85)" style="fill:#e0e0e0"></circle><circle cx="190.54" cy="123.9" r="17.34" transform="translate(-17.39 32.12) rotate(-9.22)" style="fill:#f0f0f0"></circle><polyline points="189.73 135.79 189.73 123.67 181.69 128.22" style="fill:#f0f0f0"></polyline><path d="M189.73,136.66a.87.87,0,0,1-.87-.87V125.16L182.12,129a.86.86,0,0,1-1.18-.33.87.87,0,0,1,.33-1.18l8-4.54a.88.88,0,0,1,.86,0,.86.86,0,0,1,.43.75v12.12A.87.87,0,0,1,189.73,136.66Z" style="fill:#e0e0e0"></path><rect x="74.78" y="373.85" width="21.6" height="8.54" style="fill:#f5f5f5"></rect><rect x="63.03" y="373.85" width="9.85" height="8.54" style="fill:#f5f5f5"></rect><rect x="98.26" y="373.85" width="21.6" height="8.54" style="fill:#f5f5f5"></rect><rect x="121.75" y="373.85" width="21.6" height="8.54" style="fill:#f5f5f5"></rect><rect x="145.24" y="373.85" width="21.6" height="8.54" style="fill:#f5f5f5"></rect><rect x="168.72" y="373.85" width="21.6" height="8.54" style="fill:#f5f5f5"></rect><rect x="192.21" y="373.85" width="21.6" height="8.54" style="fill:#f5f5f5"></rect><rect x="215.7" y="373.85" width="21.6" height="8.54" style="fill:#f5f5f5"></rect><rect x="239.18" y="373.85" width="21.6" height="8.54" style="fill:#f5f5f5"></rect><rect x="262.67" y="373.85" width="21.6" height="8.54" style="fill:#f5f5f5"></rect><rect x="286.16" y="373.85" width="21.6" height="8.54" style="fill:#f5f5f5"></rect><rect x="309.64" y="373.85" width="21.6" height="8.54" style="fill:#f5f5f5"></rect><rect x="333.13" y="373.85" width="21.6" height="8.54" style="fill:#f5f5f5"></rect><rect x="356.62" y="373.85" width="21.6" height="8.54" style="fill:#f5f5f5"></rect><rect x="380.1" y="373.85" width="21.6" height="8.54" style="fill:#f5f5f5"></rect><rect x="403.59" y="373.85" width="21.6" height="8.54" style="fill:#f5f5f5"></rect><rect x="427.08" y="373.85" width="9.85" height="8.54" style="fill:#f5f5f5"></rect><rect x="63.03" y="363.15" width="21.6" height="8.54" style="fill:#f5f5f5"></rect><rect x="86.52" y="363.15" width="21.6" height="8.54" style="fill:#f5f5f5"></rect><rect x="110.01" y="363.15" width="21.6" height="8.54" style="fill:#f5f5f5"></rect><rect x="133.49" y="363.15" width="21.6" height="8.54" style="fill:#f5f5f5"></rect><rect x="156.98" y="363.15" width="21.6" height="8.54" style="fill:#f5f5f5"></rect><rect x="180.47" y="363.15" width="21.6" height="8.54" style="fill:#f5f5f5"></rect><rect x="203.95" y="363.15" width="21.6" height="8.54" style="fill:#f5f5f5"></rect><rect x="227.44" y="363.15" width="21.6" height="8.54" style="fill:#f5f5f5"></rect><rect x="250.93" y="363.15" width="21.6" height="8.54" style="fill:#f5f5f5"></rect><rect x="274.41" y="363.15" width="21.6" height="8.54" style="fill:#f5f5f5"></rect><rect x="297.9" y="363.15" width="21.6" height="8.54" style="fill:#f5f5f5"></rect><rect x="321.39" y="363.15" width="21.6" height="8.54" style="fill:#f5f5f5"></rect><rect x="344.87" y="363.15" width="21.6" height="8.54" style="fill:#f5f5f5"></rect><rect x="368.36" y="363.15" width="21.6" height="8.54" style="fill:#f5f5f5"></rect><rect x="391.85" y="363.15" width="21.6" height="8.54" style="fill:#f5f5f5"></rect><rect x="415.33" y="363.15" width="21.6" height="8.54" style="fill:#f5f5f5"></rect><rect x="74.78" y="352.45" width="21.6" height="8.54" style="fill:#f5f5f5"></rect><rect x="63.03" y="352.45" width="9.85" height="8.54" style="fill:#f5f5f5"></rect><rect x="98.26" y="352.45" width="21.6" height="8.54" style="fill:#f5f5f5"></rect><rect x="121.75" y="352.45" width="21.6" height="8.54" style="fill:#f5f5f5"></rect><rect x="145.24" y="352.45" width="21.6" height="8.54" style="fill:#f5f5f5"></rect><rect x="168.72" y="352.45" width="21.6" height="8.54" style="fill:#f5f5f5"></rect><rect x="192.21" y="352.45" width="21.6" height="8.54" style="fill:#f5f5f5"></rect><rect x="215.7" y="352.45" width="21.6" height="8.54" style="fill:#f5f5f5"></rect><rect x="239.18" y="352.45" width="21.6" height="8.54" style="fill:#f5f5f5"></rect><rect x="262.67" y="352.45" width="21.6" height="8.54" style="fill:#f5f5f5"></rect><rect x="286.16" y="352.45" width="21.6" height="8.54" style="fill:#f5f5f5"></rect><rect x="309.64" y="352.45" width="21.6" height="8.54" style="fill:#f5f5f5"></rect><rect x="333.13" y="352.45" width="21.6" height="8.54" style="fill:#f5f5f5"></rect><rect x="356.62" y="352.45" width="21.6" height="8.54" style="fill:#f5f5f5"></rect><rect x="380.1" y="352.45" width="21.6" height="8.54" style="fill:#f5f5f5"></rect><rect x="403.59" y="352.45" width="21.6" height="8.54" style="fill:#f5f5f5"></rect><rect x="427.08" y="352.45" width="9.85" height="8.54" style="fill:#f5f5f5"></rect><rect x="63.03" y="341.75" width="21.6" height="8.54" style="fill:#f5f5f5"></rect><rect x="86.52" y="341.75" width="21.6" height="8.54" style="fill:#f5f5f5"></rect><rect x="110.01" y="341.75" width="21.6" height="8.54" style="fill:#f5f5f5"></rect><rect x="133.49" y="341.75" width="21.6" height="8.54" style="fill:#f5f5f5"></rect><rect x="156.98" y="341.75" width="21.6" height="8.54" style="fill:#f5f5f5"></rect><rect x="180.47" y="341.75" width="21.6" height="8.54" style="fill:#f5f5f5"></rect><rect x="203.95" y="341.75" width="21.6" height="8.54" style="fill:#f5f5f5"></rect><rect x="227.44" y="341.75" width="21.6" height="8.54" style="fill:#f5f5f5"></rect><rect x="250.93" y="341.75" width="21.6" height="8.54" style="fill:#f5f5f5"></rect><rect x="274.41" y="341.75" width="21.6" height="8.54" style="fill:#f5f5f5"></rect><rect x="297.9" y="341.75" width="21.6" height="8.54" style="fill:#f5f5f5"></rect><rect x="321.39" y="341.75" width="21.6" height="8.54" style="fill:#f5f5f5"></rect><rect x="344.87" y="341.75" width="21.6" height="8.54" style="fill:#f5f5f5"></rect><rect x="368.36" y="341.75" width="21.6" height="8.54" style="fill:#f5f5f5"></rect><rect x="391.85" y="341.75" width="21.6" height="8.54" style="fill:#f5f5f5"></rect><rect x="415.33" y="341.75" width="21.6" height="8.54" style="fill:#f5f5f5"></rect><rect x="74.78" y="331.05" width="21.6" height="8.54" style="fill:#f5f5f5"></rect><rect x="63.03" y="331.05" width="9.85" height="8.54" style="fill:#f5f5f5"></rect><rect x="98.26" y="331.05" width="21.6" height="8.54" style="fill:#f5f5f5"></rect><rect x="121.75" y="331.05" width="21.6" height="8.54" style="fill:#f5f5f5"></rect><rect x="145.24" y="331.05" width="21.6" height="8.54" style="fill:#f5f5f5"></rect><rect x="168.72" y="331.05" width="21.6" height="8.54" style="fill:#f5f5f5"></rect><rect x="192.21" y="331.05" width="21.6" height="8.54" style="fill:#f5f5f5"></rect><rect x="215.7" y="331.05" width="21.6" height="8.54" style="fill:#f5f5f5"></rect><rect x="239.18" y="331.05" width="21.6" height="8.54" style="fill:#f5f5f5"></rect><rect x="262.67" y="331.05" width="21.6" height="8.54" style="fill:#f5f5f5"></rect><rect x="286.16" y="331.05" width="21.6" height="8.54" style="fill:#f5f5f5"></rect><rect x="309.64" y="331.05" width="21.6" height="8.54" style="fill:#f5f5f5"></rect><rect x="333.13" y="331.05" width="21.6" height="8.54" style="fill:#f5f5f5"></rect><rect x="356.62" y="331.05" width="21.6" height="8.54" style="fill:#f5f5f5"></rect><rect x="380.1" y="331.05" width="21.6" height="8.54" style="fill:#f5f5f5"></rect><rect x="403.59" y="331.05" width="21.6" height="8.54" style="fill:#f5f5f5"></rect><rect x="427.08" y="331.05" width="9.85" height="8.54" style="fill:#f5f5f5"></rect><rect x="63.03" y="320.35" width="21.6" height="8.54" style="fill:#f5f5f5"></rect><rect x="86.52" y="320.35" width="21.6" height="8.54" style="fill:#f5f5f5"></rect><rect x="110.01" y="320.35" width="21.6" height="8.54" style="fill:#f5f5f5"></rect><rect x="133.49" y="320.35" width="21.6" height="8.54" style="fill:#f5f5f5"></rect><rect x="156.98" y="320.35" width="21.6" height="8.54" style="fill:#f5f5f5"></rect><rect x="180.47" y="320.35" width="21.6" height="8.54" style="fill:#f5f5f5"></rect><rect x="203.95" y="320.35" width="21.6" height="8.54" style="fill:#f5f5f5"></rect><rect x="227.44" y="320.35" width="21.6" height="8.54" style="fill:#f5f5f5"></rect><rect x="250.93" y="320.35" width="21.6" height="8.54" style="fill:#f5f5f5"></rect><rect x="274.41" y="320.35" width="21.6" height="8.54" style="fill:#f5f5f5"></rect><rect x="297.9" y="320.35" width="21.6" height="8.54" style="fill:#f5f5f5"></rect><rect x="321.39" y="320.35" width="21.6" height="8.54" style="fill:#f5f5f5"></rect><rect x="344.87" y="320.35" width="21.6" height="8.54" style="fill:#f5f5f5"></rect><rect x="368.36" y="320.35" width="21.6" height="8.54" style="fill:#f5f5f5"></rect><rect x="391.85" y="320.35" width="21.6" height="8.54" style="fill:#f5f5f5"></rect><rect x="415.33" y="320.35" width="21.6" height="8.54" style="fill:#f5f5f5"></rect><rect x="74.78" y="309.65" width="21.6" height="8.54" style="fill:#f5f5f5"></rect><rect x="63.03" y="309.65" width="9.85" height="8.54" style="fill:#f5f5f5"></rect><rect x="98.26" y="309.65" width="21.6" height="8.54" style="fill:#f5f5f5"></rect><rect x="121.75" y="309.65" width="21.6" height="8.54" style="fill:#f5f5f5"></rect><rect x="145.24" y="309.65" width="21.6" height="8.54" style="fill:#f5f5f5"></rect><rect x="168.72" y="309.65" width="21.6" height="8.54" style="fill:#f5f5f5"></rect><rect x="192.21" y="309.65" width="21.6" height="8.54" style="fill:#f5f5f5"></rect><rect x="215.7" y="309.65" width="21.6" height="8.54" style="fill:#f5f5f5"></rect><rect x="239.18" y="309.65" width="21.6" height="8.54" style="fill:#f5f5f5"></rect><rect x="262.67" y="309.65" width="21.6" height="8.54" style="fill:#f5f5f5"></rect><rect x="286.16" y="309.65" width="21.6" height="8.54" style="fill:#f5f5f5"></rect><rect x="309.64" y="309.65" width="21.6" height="8.54" style="fill:#f5f5f5"></rect><rect x="333.13" y="309.65" width="21.6" height="8.54" style="fill:#f5f5f5"></rect><rect x="356.62" y="309.65" width="21.6" height="8.54" style="fill:#f5f5f5"></rect><rect x="380.1" y="309.65" width="21.6" height="8.54" style="fill:#f5f5f5"></rect><rect x="403.59" y="309.65" width="21.6" height="8.54" style="fill:#f5f5f5"></rect><rect x="427.08" y="309.65" width="9.85" height="8.54" style="fill:#f5f5f5"></rect><rect x="63.03" y="298.95" width="21.6" height="8.54" style="fill:#f5f5f5"></rect><rect x="86.52" y="298.95" width="21.6" height="8.54" style="fill:#f5f5f5"></rect><rect x="110.01" y="298.95" width="21.6" height="8.54" style="fill:#f5f5f5"></rect><rect x="133.49" y="298.95" width="21.6" height="8.54" style="fill:#f5f5f5"></rect><rect x="156.98" y="298.95" width="21.6" height="8.54" style="fill:#f5f5f5"></rect><rect x="180.47" y="298.95" width="21.6" height="8.54" style="fill:#f5f5f5"></rect><rect x="203.95" y="298.95" width="21.6" height="8.54" style="fill:#f5f5f5"></rect><rect x="227.44" y="298.95" width="21.6" height="8.54" style="fill:#f5f5f5"></rect><rect x="250.93" y="298.95" width="21.6" height="8.54" style="fill:#f5f5f5"></rect><rect x="274.41" y="298.95" width="21.6" height="8.54" style="fill:#f5f5f5"></rect><rect x="297.9" y="298.95" width="21.6" height="8.54" style="fill:#f5f5f5"></rect><rect x="321.39" y="298.95" width="21.6" height="8.54" style="fill:#f5f5f5"></rect><rect x="344.87" y="298.95" width="21.6" height="8.54" style="fill:#f5f5f5"></rect><rect x="368.36" y="298.95" width="21.6" height="8.54" style="fill:#f5f5f5"></rect><rect x="391.85" y="298.95" width="21.6" height="8.54" style="fill:#f5f5f5"></rect><rect x="415.33" y="298.95" width="21.6" height="8.54" style="fill:#f5f5f5"></rect><rect x="74.78" y="288.25" width="21.6" height="8.54" style="fill:#f5f5f5"></rect><rect x="63.03" y="288.25" width="9.85" height="8.54" style="fill:#f5f5f5"></rect><rect x="98.26" y="288.25" width="21.6" height="8.54" style="fill:#f5f5f5"></rect><rect x="121.75" y="288.25" width="21.6" height="8.54" style="fill:#f5f5f5"></rect><rect x="145.24" y="288.25" width="21.6" height="8.54" style="fill:#f5f5f5"></rect><rect x="168.72" y="288.25" width="21.6" height="8.54" style="fill:#f5f5f5"></rect><rect x="192.21" y="288.25" width="21.6" height="8.54" style="fill:#f5f5f5"></rect><rect x="215.7" y="288.25" width="21.6" height="8.54" style="fill:#f5f5f5"></rect><rect x="239.18" y="288.25" width="21.6" height="8.54" style="fill:#f5f5f5"></rect><rect x="262.67" y="288.25" width="21.6" height="8.54" style="fill:#f5f5f5"></rect><rect x="286.16" y="288.25" width="21.6" height="8.54" style="fill:#f5f5f5"></rect><rect x="309.64" y="288.25" width="21.6" height="8.54" style="fill:#f5f5f5"></rect><rect x="333.13" y="288.25" width="21.6" height="8.54" style="fill:#f5f5f5"></rect><rect x="356.62" y="288.25" width="21.6" height="8.54" style="fill:#f5f5f5"></rect><rect x="380.1" y="288.25" width="21.6" height="8.54" style="fill:#f5f5f5"></rect><rect x="403.59" y="288.25" width="21.6" height="8.54" style="fill:#f5f5f5"></rect><rect x="427.08" y="288.25" width="9.85" height="8.54" style="fill:#f5f5f5"></rect><rect x="63.03" y="277.55" width="21.6" height="8.54" style="fill:#f5f5f5"></rect><rect x="86.52" y="277.55" width="21.6" height="8.54" style="fill:#f5f5f5"></rect><rect x="110.01" y="277.55" width="21.6" height="8.54" style="fill:#f5f5f5"></rect><rect x="133.49" y="277.55" width="21.6" height="8.54" style="fill:#f5f5f5"></rect><rect x="156.98" y="277.55" width="21.6" height="8.54" style="fill:#f5f5f5"></rect><rect x="180.47" y="277.55" width="21.6" height="8.54" style="fill:#f5f5f5"></rect><rect x="203.95" y="277.55" width="21.6" height="8.54" style="fill:#f5f5f5"></rect><rect x="227.44" y="277.55" width="21.6" height="8.54" style="fill:#f5f5f5"></rect><rect x="250.93" y="277.55" width="21.6" height="8.54" style="fill:#f5f5f5"></rect><rect x="274.41" y="277.55" width="21.6" height="8.54" style="fill:#f5f5f5"></rect><rect x="297.9" y="277.55" width="21.6" height="8.54" style="fill:#f5f5f5"></rect><rect x="321.39" y="277.55" width="21.6" height="8.54" style="fill:#f5f5f5"></rect><rect x="344.87" y="277.55" width="21.6" height="8.54" style="fill:#f5f5f5"></rect><rect x="368.36" y="277.55" width="21.6" height="8.54" style="fill:#f5f5f5"></rect><rect x="391.85" y="277.55" width="21.6" height="8.54" style="fill:#f5f5f5"></rect><rect x="415.33" y="277.55" width="21.6" height="8.54" style="fill:#f5f5f5"></rect><rect x="74.78" y="266.84" width="21.6" height="8.54" style="fill:#f5f5f5"></rect><rect x="63.03" y="266.84" width="9.85" height="8.54" style="fill:#f5f5f5"></rect><rect x="98.26" y="266.84" width="21.6" height="8.54" style="fill:#f5f5f5"></rect><rect x="121.75" y="266.84" width="21.6" height="8.54" style="fill:#f5f5f5"></rect><rect x="145.24" y="266.84" width="21.6" height="8.54" style="fill:#f5f5f5"></rect><rect x="168.72" y="266.84" width="21.6" height="8.54" style="fill:#f5f5f5"></rect><rect x="192.21" y="266.84" width="21.6" height="8.54" style="fill:#f5f5f5"></rect><rect x="215.7" y="266.84" width="21.6" height="8.54" style="fill:#f5f5f5"></rect><rect x="239.18" y="266.84" width="21.6" height="8.54" style="fill:#f5f5f5"></rect><rect x="262.67" y="266.84" width="21.6" height="8.54" style="fill:#f5f5f5"></rect><rect x="286.16" y="266.84" width="21.6" height="8.54" style="fill:#f5f5f5"></rect><rect x="309.64" y="266.84" width="21.6" height="8.54" style="fill:#f5f5f5"></rect><rect x="333.13" y="266.84" width="21.6" height="8.54" style="fill:#f5f5f5"></rect><rect x="356.62" y="266.84" width="21.6" height="8.54" style="fill:#f5f5f5"></rect><rect x="380.1" y="266.84" width="21.6" height="8.54" style="fill:#f5f5f5"></rect><rect x="403.59" y="266.84" width="21.6" height="8.54" style="fill:#f5f5f5"></rect><rect x="427.08" y="266.84" width="9.85" height="8.54" style="fill:#f5f5f5"></rect><rect x="63.03" y="256.14" width="21.6" height="8.54" style="fill:#f5f5f5"></rect><rect x="86.52" y="256.14" width="21.6" height="8.54" style="fill:#f5f5f5"></rect><rect x="110.01" y="256.14" width="21.6" height="8.54" style="fill:#f5f5f5"></rect><rect x="133.49" y="256.14" width="21.6" height="8.54" style="fill:#f5f5f5"></rect><rect x="156.98" y="256.14" width="21.6" height="8.54" style="fill:#f5f5f5"></rect><rect x="180.47" y="256.14" width="21.6" height="8.54" style="fill:#f5f5f5"></rect><rect x="203.95" y="256.14" width="21.6" height="8.54" style="fill:#f5f5f5"></rect><rect x="227.44" y="256.14" width="21.6" height="8.54" style="fill:#f5f5f5"></rect><rect x="250.93" y="256.14" width="21.6" height="8.54" style="fill:#f5f5f5"></rect><rect x="274.41" y="256.14" width="21.6" height="8.54" style="fill:#f5f5f5"></rect><rect x="297.9" y="256.14" width="21.6" height="8.54" style="fill:#f5f5f5"></rect><rect x="321.39" y="256.14" width="21.6" height="8.54" style="fill:#f5f5f5"></rect><rect x="344.87" y="256.14" width="21.6" height="8.54" style="fill:#f5f5f5"></rect><rect x="368.36" y="256.14" width="21.6" height="8.54" style="fill:#f5f5f5"></rect><rect x="391.85" y="256.14" width="21.6" height="8.54" style="fill:#f5f5f5"></rect><rect x="415.33" y="256.14" width="21.6" height="8.54" style="fill:#f5f5f5"></rect></g><g id="freepik--Shadow--inject-1"><ellipse id="freepik--path--inject-1" cx="250" cy="416.24" rx="193.89" ry="11.32" style="fill:#f5f5f5"></ellipse></g><g id="freepik--Clothes--inject-1"><path d="M249.55,184.51s-4.06,5.79-8.64,5.79-9.69-5.79-9.69-5.79-12,8.78-14.08,11.6-3.35,34.54-2.37,48.25-15.92,122.32-14.51,131.88,26.63,6.16,41.5,6.28,35.62,5.52,38-2.54-1.42-51.82-6.6-73.94-5.51-72.75-6.53-83.57-1.82-22.93-2.61-26.36S249.55,184.51,249.55,184.51Z" style="fill:#0294F5"></path><path d="M221,306.07a121.16,121.16,0,0,1-1.32,22.19c-.8,4.94-1.57,6.13-6.77,5.08-3.29-.67-6.66-2.38-10.06-1.29-1.14.37-2.16,1-3.26,1.51-2.54,1.1-5.4,1.12-8.17,1.13l-19.5,0c-4.53,0-8.93,1-9.4-4.46-1.85-21.57-1.33-43.28.25-64.85.4-5.4.87-10.79,1.38-16.19.44-4.63,1.72-9.84,1-14.46-1.32-8.31-1.29-16.63-1.09-25.1.08-3.62-.91-11.48,1.47-14.62,2.12-2.81,15.68-10.53,15.68-10.53s5.1,5.79,9.68,5.79,8.65-5.79,8.65-5.79,16.43,9,17.22,12.47-1.18,14.68-.16,25.49c1.24,13.07.19,25.93,1,39s2.57,26,3.23,39Q220.93,303.28,221,306.07Z" style="fill:#0294F5"></path><path d="M168,303.07a121.16,121.16,0,0,1-1.32,22.19c-.8,4.94-1.57,6.13-6.77,5.08-3.3-.67-6.66-2.39-10.07-1.29-1.14.37-2.16,1-3.26,1.51-2.54,1.1-5.4,1.12-8.17,1.12l-19.5,0c-4.53,0-8.92,1-9.4-4.46-1.85-21.57-1.32-43.28.26-64.85q.6-8.1,1.37-16.19c.44-4.63,1.73-9.84,1-14.46-1.32-8.31,1.72-14.63,1.92-23.1.08-3.62-.91-11.48,1.47-14.62,2.12-2.81,12.68-12.53,12.68-12.53s5.1,5.78,9.68,5.78,8.65-5.78,8.65-5.78,14.43,11,15.22,14.47.82,12.68,1.84,23.49c1.23,13.07.19,25.93,1,39s2.57,26,3.23,39C167.84,299.34,167.92,301.21,168,303.07Z" style="fill:#0294F5"></path><path d="M168,303.07a121.16,121.16,0,0,1-1.32,22.19c-.8,4.94-1.57,6.13-6.77,5.08-3.3-.67-6.66-2.39-10.07-1.29-1.14.37-2.16,1-3.26,1.51-2.54,1.1-5.4,1.12-8.17,1.12l-19.5,0c-4.53,0-8.92,1-9.4-4.46-1.85-21.57-1.32-43.28.26-64.85q.6-8.1,1.37-16.19c.44-4.63,1.73-9.84,1-14.46-1.32-8.31,1.72-14.63,1.92-23.1.08-3.62-.91-11.48,1.47-14.62,2.12-2.81,12.68-12.53,12.68-12.53s5.1,5.78,9.68,5.78,8.65-5.78,8.65-5.78,14.43,11,15.22,14.47.82,12.68,1.84,23.49c1.23,13.07.19,25.93,1,39s2.57,26,3.23,39C167.84,299.34,167.92,301.21,168,303.07Z" style="fill:#fff;opacity:0.7000000000000001"></path><path d="M221,306.07a121.16,121.16,0,0,1-1.32,22.19c-.8,4.94-1.57,6.13-6.77,5.08-3.29-.67-6.66-2.38-10.06-1.29-1.14.37-2.16,1-3.26,1.51-2.54,1.1-5.4,1.12-8.17,1.13l-19.5,0c-4.53,0-8.93,1-9.4-4.46-1.85-21.57-1.33-43.28.25-64.85.4-5.4.87-10.79,1.38-16.19.44-4.63,1.72-9.84,1-14.46-1.32-8.31-1.29-16.63-1.09-25.1.08-3.62-.91-11.48,1.47-14.62,2.12-2.81,15.68-10.53,15.68-10.53s5.1,5.79,9.68,5.79,8.65-5.79,8.65-5.79,16.43,9,17.22,12.47-1.18,14.68-.16,25.49c1.24,13.07.19,25.93,1,39s2.57,26,3.23,39Q220.93,303.28,221,306.07Z" style="fill:#fff;opacity:0.7000000000000001"></path><path d="M249.55,184.51s-4.06,5.79-8.64,5.79-9.69-5.79-9.69-5.79-12,8.78-14.08,11.6-3.35,34.54-2.37,48.25-15.92,122.32-14.51,131.88,26.63,6.16,41.5,6.28,35.62,5.52,38-2.54-1.42-51.82-6.6-73.94-5.51-72.75-6.53-83.57-1.82-22.93-2.61-26.36S249.55,184.51,249.55,184.51Z" style="fill:#fff;opacity:0.7000000000000001"></path><path d="M92.09,404h3.56V171.24a1.5,1.5,0,0,1,1.5-1.5H283.27a1.5,1.5,0,0,1,1.5,1.5V404h3.36a1.5,1.5,0,0,1,0,3H277.07a1.5,1.5,0,1,1,0-3h4.7V172.74H98.65V404h4.5a1.5,1.5,0,0,1,0,3H92.09a1.5,1.5,0,0,1,0-3Z" style="fill:#263238"></path><path d="M92.09,404h3.56V171.24a1.5,1.5,0,0,1,1.5-1.5H283.27a1.5,1.5,0,0,1,1.5,1.5V404h3.36a1.5,1.5,0,0,1,0,3H277.07a1.5,1.5,0,1,1,0-3h4.7V172.74H98.65V404h4.5a1.5,1.5,0,0,1,0,3H92.09a1.5,1.5,0,0,1,0-3Z" style="fill:#fff;opacity:0.4"></path><path d="M219.65,196.76a1.73,1.73,0,0,1,.63-2l19.78-14.52a.5.5,0,0,1,.58,0l21.06,14.5a1.77,1.77,0,0,1-1,3.22H221.32A1.74,1.74,0,0,1,219.65,196.76Zm1.22-1.16a.74.74,0,0,0-.27.85.75.75,0,0,0,.72.53H260.7a.74.74,0,0,0,.73-.54.76.76,0,0,0-.3-.86l-20.76-14.3Z" style="fill:#263238"></path><path d="M240.36,181.17a.5.5,0,0,0,.5-.5V175.5c.51-.82,2.64-4.48,1.63-6.33a2.21,2.21,0,0,0-2.13-1c-1.72,0-2.83.41-3.29,1.22a2.29,2.29,0,0,0,.09,2.12.5.5,0,0,0,.69.17A.5.5,0,0,0,238,171a1.29,1.29,0,0,1-.08-1.12c.27-.46,1.13-.71,2.42-.71,1,0,1.18.39,1.25.51.6,1.1-.71,3.92-1.67,5.44a.5.5,0,0,0-.08.26v5.32A.5.5,0,0,0,240.36,181.17Z" style="fill:#263238"></path><polygon points="252.18 203.91 252.94 187.81 256.71 190.62 255.33 204.41 252.18 203.91" style="fill:#0294F5"></polygon><polygon points="229.17 204.41 227.66 187.81 224.26 190.62 225.14 204.41 229.17 204.41" style="fill:#0294F5"></polygon><polygon points="252.18 203.91 252.94 187.81 256.71 190.62 255.33 204.41 252.18 203.91" style="opacity:0.2"></polygon><polygon points="229.17 204.41 227.66 187.81 224.26 190.62 225.14 204.41 229.17 204.41" style="opacity:0.2"></polygon><path d="M211.28,372.52c3.16-.07,6.4-1.18,9.4-.2,1.52.49,2.83,1.48,4.3,2.1,3.61,1.49,7.76.54,11.4-.89s7.15-3.36,11-3.85c7.08-.87,14,3.2,21.1,2.87,3.22-.15,9.95-1.7,10.66-5.25a9.11,9.11,0,0,0-.43-2.49c-.43-2.55-.84-5.11-1.27-7.67l-4.17-25.21-10.95-66.16q-2.55-15.36-5.09-30.72l-.69-4.17c0-.23-.07-.45-.11-.68l.63-4q1.28-8.15,2.54-16.29l1-6.53a4.06,4.06,0,0,0,.13-1.75,1,1,0,0,0-.18-.34c-1.11-1.38-5.09-1.27-6.62-1.05-2.53.35-4.85,1.52-7.27,2.31a28.44,28.44,0,0,1-16.25.17,27.94,27.94,0,0,0-5-1.18c-2-.17-4.71.2-4.57,2.56a26.19,26.19,0,0,0,.43,2.63q2.24,13.42,4.45,26.84l0,.16c-.14.9-.29,1.81-.44,2.71l-5.19,31.52q-5.37,32.59-10.73,65.18-2.06,12.53-4.12,25.06C204.3,364,201.51,372.74,211.28,372.52Z" style="fill:#0294F5"></path><path d="M225.3,236.39c1.94.81,6.28,2.23,10.23.85,5.27-1.84,11,3.8,17.49.58a19.57,19.57,0,0,0,4.24-2.77l-.69-4.17c-1.9,1.81-4.8,3.66-8.24,2.93-6.21-1.32-9.24-2.31-14.32.17-2.93,1.42-6.11.63-8.27-.3C225.6,234.58,225.45,235.49,225.3,236.39Z" style="opacity:0.2"></path><path d="M169.23,196.76a1.73,1.73,0,0,1,.63-2l19.78-14.52a.5.5,0,0,1,.58,0l21.06,14.5a1.77,1.77,0,0,1-1,3.22H170.9A1.74,1.74,0,0,1,169.23,196.76Zm1.22-1.16a.74.74,0,0,0-.27.85.75.75,0,0,0,.72.53h39.38a.77.77,0,0,0,.43-1.4L190,181.28Z" style="fill:#263238"></path><path d="M189.94,181.17a.5.5,0,0,0,.5-.5V175.5c.51-.82,2.64-4.48,1.63-6.33a2.21,2.21,0,0,0-2.13-1c-1.72,0-2.83.41-3.29,1.22a2.29,2.29,0,0,0,.09,2.12.5.5,0,0,0,.86-.51,1.29,1.29,0,0,1-.08-1.12c.27-.46,1.13-.71,2.42-.71,1,0,1.18.39,1.25.51.6,1.1-.71,3.92-1.67,5.44a.5.5,0,0,0-.08.26v5.32A.5.5,0,0,0,189.94,181.17Z" style="fill:#263238"></path><path d="M200.14,186.28s-7.08,5.11-10.76,5.11-8.68-5.63-8.68-5.63l-8.91,6.08c-1.31.89-4.1,2.07-5,3.4-1.4,2.09,1.46,6.93,2.86,8.88a5,5,0,0,1,.85,1.47,6.52,6.52,0,0,1,.12,1.33c.19,3.23,3.09,4.93,3.64,7.84.29,1.54-.3,3.39-.44,5-.22,2.51-.42,5-.63,7.54q-.93,11.15-1.85,22.29-2.21,26.37-4.39,52.72-.86,10.2-1.7,20.39c-.1,1.18-.74,3.51-.07,4.46a16.08,16.08,0,0,0,2.94,1.43,23.67,23.67,0,0,0,7.34,1.71c7,.85,14.28,1.7,21.11-.17a34.61,34.61,0,0,1,3.47-.89c3.25-.5,6.56.62,9.84.36,2.79-.21,4.65-2.12,7.17-2.65-1-8.82-1.77-17.83-2.69-26.73q-2.67-25.93-5.35-51.86l-2.22-21.56-.75-7.25a28.88,28.88,0,0,1-.36-3.44c.09-2.68,2.62-4.95,4.27-7a7.63,7.63,0,0,0,1-1.44,6.76,6.76,0,0,0,.47-1.59c.75-3.4,2.37-6.18,4.09-9.13C211.42,192.71,205.07,189.64,200.14,186.28Z" style="fill:#263238"></path><path d="M165.19,327.12a15.44,15.44,0,0,0,2.94,1.42,23.34,23.34,0,0,0,7.34,1.72c7,.85,14.27,1.7,21.11-.17a34.61,34.61,0,0,1,3.47-.89c3.25-.5,6.56.62,9.84.36,2.79-.21,4.64-2.12,7.17-2.65-1-8.82-1.78-17.83-2.69-26.73q-2.67-25.93-5.35-51.86l-2.22-21.56-.75-7.25a26.94,26.94,0,0,1-.36-3.44,5.19,5.19,0,0,1,.59-2.19,27.56,27.56,0,0,1,3.68-4.79,7.63,7.63,0,0,0,1-1.44,7.27,7.27,0,0,0,.47-1.59c.75-3.4,2.36-6.18,4.09-9.13-4.15-4.22-10.5-7.29-15.42-10.65,0,0-7.08,5.11-10.76,5.11s-8.68-5.63-8.68-5.63l-8.92,6.08c-1.31.89-4.1,2.07-5,3.4-1.4,2.09,1.46,6.93,2.86,8.88a4.79,4.79,0,0,1,.84,1.47,5.89,5.89,0,0,1,.13,1.33c.17,2.84,2.43,4.49,3.35,6.83a6.54,6.54,0,0,1,.29,1c.29,1.54-.3,3.39-.44,5-.22,2.51-.42,5-.63,7.54q-.93,11.15-1.85,22.29-2.21,26.37-4.39,52.72-.86,10.2-1.7,20.39C165.16,323.84,164.51,326.17,165.19,327.12Z" style="fill:#fff;opacity:0.5"></path><path d="M165.19,327.12a15.44,15.44,0,0,0,2.94,1.42,23.34,23.34,0,0,0,7.34,1.72c7,.85,14.27,1.7,21.11-.17a34.61,34.61,0,0,1,3.47-.89c3.25-.5,6.56.62,9.84.36,2.79-.21,4.64-2.12,7.17-2.65-1-8.82-1.78-17.83-2.69-26.73q-2.67-25.93-5.35-51.86l-2.22-21.56-.75-7.25a26.94,26.94,0,0,1-.36-3.44,5.19,5.19,0,0,1,.59-2.19,48.43,48.43,0,0,1-8.4-.11c-3.5-.53-5.51-1.32-9.91,0-3.88,1.16-9.93-.39-14,0a6.54,6.54,0,0,1,.29,1c.29,1.54-.3,3.39-.44,5-.22,2.51-.42,5-.63,7.54q-.93,11.15-1.85,22.29-2.21,26.37-4.39,52.72-.86,10.2-1.7,20.39C165.16,323.84,164.51,326.17,165.19,327.12Z" style="opacity:0.2"></path><path d="M116.81,196.76a1.72,1.72,0,0,1,.63-2l19.78-14.52a.5.5,0,0,1,.58,0l21.06,14.5a1.77,1.77,0,0,1-1,3.22H118.48A1.73,1.73,0,0,1,116.81,196.76ZM118,195.6a.73.73,0,0,0-.27.85.74.74,0,0,0,.72.53h39.38a.77.77,0,0,0,.43-1.4l-20.76-14.3Z" style="fill:#263238"></path><path d="M137.52,181.17a.5.5,0,0,0,.5-.5V175.5c.5-.82,2.64-4.48,1.62-6.33a2.19,2.19,0,0,0-2.12-1c-1.72,0-2.83.41-3.3,1.22a2.31,2.31,0,0,0,.1,2.12.5.5,0,0,0,.86-.51,1.32,1.32,0,0,1-.09-1.12c.27-.46,1.13-.71,2.43-.71,1,0,1.18.39,1.25.51.6,1.1-.71,3.92-1.67,5.44a.5.5,0,0,0-.08.26v5.32A.5.5,0,0,0,137.52,181.17Z" style="fill:#263238"></path><path d="M153.8,190.1c.12.09-.52,8.72-.28,9.72.58,2.42,2.24,4.31,2.81,6.6.86,3.51.47,7.88.69,11.5.9,15.18,1.69,30.36,2.48,45.55.19,3.74.39,7.48.58,11.22.27,5.15-.46,10.31-.34,15.47.09,3.63,1.47,11.09-.44,14.3s-12.59,1.48-16.07,1.46l-14.3-.13c-3.07,0-6.17.1-9.23-.07-2.19-.12-2.32.12-3.27-1.77s-.69-5.44-.7-7.53c-.13-26.71,1.74-53.61,2.41-80.4l.2-7.81s5.76-10.67,3.32-17.09l6.06-5.65s6.86,5,10.45,4.38,8.47-5.34,8.47-5.34Z" style="fill:#0294F5"></path><path d="M153.8,190.1c.12.09-.52,8.72-.28,9.72.58,2.42,2.24,4.31,2.81,6.6.86,3.51.47,7.88.69,11.5.9,15.18,1.69,30.36,2.48,45.55.19,3.74.39,7.48.58,11.22.27,5.15-.46,10.31-.34,15.47.09,3.63,1.47,11.09-.44,14.3s-12.59,1.48-16.07,1.46l-14.3-.13c-3.07,0-6.17.1-9.23-.07-2.19-.12-2.32.12-3.27-1.77s-.69-5.44-.7-7.53c-.13-26.71,1.74-53.61,2.41-80.4l.2-7.81s5.76-10.67,3.32-17.09l6.06-5.65s6.86,5,10.45,4.38,8.47-5.34,8.47-5.34Z" style="opacity:0.2"></path><path d="M137.5,189.9s-3.27,8-5.11,8.08-9.24-8.85-9.24-8.85,3-5.29,4.22-5.29S137.5,189.9,137.5,189.9Z" style="fill:#0294F5"></path><path d="M137.5,189.9s7.68-6.33,9-6.06,5.12,4.55,5.12,4.55-6.7,9.49-8.81,9.59S137.5,189.9,137.5,189.9Z" style="fill:#0294F5"></path><path d="M168,303.07a121.16,121.16,0,0,1-1.32,22.19c-.8,4.94-1.57,6.13-6.77,5.08-3.3-.67-6.66-2.39-10.07-1.29-1.14.37-2.16,1-3.26,1.51-2.54,1.1-5.4,1.12-8.17,1.12l-19.5,0c-4.53,0-8.92,1-9.4-4.46-1.85-21.57-1.32-43.28.26-64.85q.6-8.1,1.37-16.19c.44-4.63,1.73-9.84,1-14.46-1.32-8.31,1.72-14.63,1.92-23.1.08-3.62-.91-11.48,1.47-14.62,2.12-2.81,12.68-12.53,12.68-12.53s5.1,5.78,9.68,5.78,8.65-5.78,8.65-5.78,14.43,11,15.22,14.47.82,12.68,1.84,23.49c1.23,13.07.19,25.93,1,39s2.57,26,3.23,39C167.84,299.34,167.92,301.21,168,303.07Z" style="fill:#fff;opacity:0.2"></path><path d="M221,306.07a121.16,121.16,0,0,1-1.32,22.19c-.8,4.94-1.57,6.13-6.77,5.08-3.29-.67-6.66-2.38-10.06-1.29-1.14.37-2.16,1-3.26,1.51-2.54,1.1-5.4,1.12-8.17,1.13l-19.5,0c-4.53,0-8.93,1-9.4-4.46-1.85-21.57-1.33-43.28.25-64.85.4-5.4.87-10.79,1.38-16.19.44-4.63,1.72-9.84,1-14.46-1.32-8.31-1.29-16.63-1.09-25.1.08-3.62-.91-11.48,1.47-14.62,2.12-2.81,15.68-10.53,15.68-10.53s5.1,5.79,9.68,5.79,8.65-5.79,8.65-5.79,16.43,9,17.22,12.47-1.18,14.68-.16,25.49c1.24,13.07.19,25.93,1,39s2.57,26,3.23,39Q220.93,303.28,221,306.07Z" style="fill:#fff;opacity:0.2"></path><path d="M249.55,184.51s-4.06,5.79-8.64,5.79-9.69-5.79-9.69-5.79-12,8.78-14.08,11.6-3.35,34.54-2.37,48.25-15.92,122.32-14.51,131.88,26.63,6.16,41.5,6.28,35.62,5.52,38-2.54-1.42-51.82-6.6-73.94-5.51-72.75-6.53-83.57-1.82-22.93-2.61-26.36S249.55,184.51,249.55,184.51Z" style="fill:#fff;opacity:0.2"></path></g><g id="freepik--Character--inject-1"><rect x="184.72" y="286.04" width="147.51" height="130.65" transform="translate(516.95 702.73) rotate(180)" style="fill:#0294F5"></rect><rect x="184.72" y="286.04" width="147.51" height="130.65" transform="translate(516.95 702.73) rotate(180)" style="fill:#fafafa;opacity:0.6000000000000001"></rect><rect x="184.72" y="286.04" width="84.6" height="130.65" transform="translate(454.03 702.73) rotate(180)" style="fill:#fff;opacity:0.30000000000000004"></rect><rect x="184.72" y="298.47" width="84.6" height="1.72" style="opacity:0.2"></rect><rect x="184.72" y="397.37" width="147.51" height="2.21" style="opacity:0.2"></rect><path d="M248,292.19a1.52,1.52,0,1,1-1.52-1.52A1.52,1.52,0,0,1,248,292.19Z" style="opacity:0.2"></path><path d="M253.88,292.19a1.53,1.53,0,1,1-1.52-1.52A1.52,1.52,0,0,1,253.88,292.19Z" style="opacity:0.2"></path><circle cx="199.82" cy="292.19" r="1.52" style="opacity:0.2"></circle><path d="M207.2,292.19a1.52,1.52,0,1,1-1.52-1.52A1.52,1.52,0,0,1,207.2,292.19Z" style="opacity:0.2"></path><rect x="212.53" y="288.5" width="27.13" height="7.38" rx="1.08" style="opacity:0.2"></rect><rect x="188.53" y="303.63" width="7.01" height="10.33" rx="1.26" style="fill:#fff;opacity:0.30000000000000004"></rect><path d="M194.25,308c0,1.68-1,3-2.22,3s-2.21-1.36-2.21-3,1-3.05,2.21-3.05S194.25,306.3,194.25,308Z" style="opacity:0.1"></path><rect x="189.69" y="311.91" width="4.68" height="0.77" style="opacity:0.1"></rect><ellipse cx="226.09" cy="348.34" rx="27.64" ry="37.66" style="fill:#263238"></ellipse><path d="M253.73,348.34c0,20.8-12.37,37.66-27.64,37.66h-.47c15.06-.33,27.18-17.06,27.18-37.65S240.68,311,225.62,310.69h.47C241.36,310.68,253.73,327.54,253.73,348.34Z" style="opacity:0.2"></path><ellipse cx="226.09" cy="348.34" rx="27.64" ry="37.66" style="fill:#fff;opacity:0.30000000000000004"></ellipse><path d="M249.07,348.34c0,16.58-8.56,30.34-19.66,32.65a16.62,16.62,0,0,1-3.32.35,16.91,16.91,0,0,1-8.54-2.37,17.76,17.76,0,0,1-1.9-1.25,28.7,28.7,0,0,1-8.76-11.3,38.83,38.83,0,0,1-2.11-5.79c-.24-.85-.46-1.71-.65-2.6a46.2,46.2,0,0,1-1-9.69c0-18.19,10.3-33,23-33a16.62,16.62,0,0,1,3.32.34,17.62,17.62,0,0,1,4.84,1.81c.54.29,1.06.62,1.59,1a22.48,22.48,0,0,1,3.48,2.91,32,32,0,0,1,7,11.33q.47,1.19.84,2.43A45.18,45.18,0,0,1,249.07,348.34Z" style="fill:#fff;opacity:0.30000000000000004"></path><path d="M249.07,348.34c0,16.58-8.56,30.34-19.66,32.65-11.09-2.32-19.65-16.08-19.65-32.65s8.56-30.33,19.65-32.65C240.51,318,249.07,331.77,249.07,348.34Z" style="fill:#263238"></path><ellipse cx="177.61" cy="348.34" rx="29.41" ry="37.66" style="fill:#0294F5"></ellipse><path d="M148.21,348.34c0,20.8,13.16,37.66,29.41,37.66h.49c-16-.33-28.91-17.06-28.91-37.65s12.89-37.31,28.91-37.65h-.49C161.37,310.68,148.21,327.54,148.21,348.34Z" style="opacity:0.2"></path><ellipse cx="179.6" cy="348.34" rx="26.43" ry="34.86" style="opacity:0.2"></ellipse><ellipse cx="183.34" cy="348.34" rx="24.21" ry="32.8" style="fill:#0294F5"></ellipse><path d="M203.59,348.34c0,15.25-8.82,28.13-19.26,28.13a14,14,0,0,1-8.09-2.7,17.51,17.51,0,0,1-1.88-1.51,28.74,28.74,0,0,1-7.85-13.49,38.08,38.08,0,0,1-1.27-7q-.13-1.59-.15-3.21v-.23c0-15.25,8.81-28.13,19.24-28.13a12.69,12.69,0,0,1,3.63.52,13.35,13.35,0,0,1,1.91.72,16.71,16.71,0,0,1,4,2.6,27.2,27.2,0,0,1,7.5,11.45c.3.83.57,1.69.81,2.56h0A38.43,38.43,0,0,1,203.59,348.34Z" style="fill:#fff;opacity:0.5"></path><path d="M204.58,348.34c0,15.25-8.81,28.13-19.26,28.13a13.1,13.1,0,0,1-2-.15c9.54-1.51,17.26-13.71,17.26-28s-7.72-26.47-17.26-28a11.93,11.93,0,0,1,2-.16C195.77,320.21,204.58,333.09,204.58,348.34Z" style="opacity:0.2"></path><path d="M188,320.73a177.76,177.76,0,0,0-22.87,27.84v-.23c0-15.25,8.81-28.13,19.24-28.13A12.69,12.69,0,0,1,188,320.73Z" style="fill:#fff;opacity:0.1"></path><path d="M193.89,324.05a178.18,178.18,0,0,0-27.38,34.72,38.08,38.08,0,0,1-1.27-7,178.75,178.75,0,0,1,24.63-30.33A16.71,16.71,0,0,1,193.89,324.05Z" style="fill:#fff;opacity:0.1"></path><path d="M202.2,338.06h0a177,177,0,0,0-26,35.7,17.51,17.51,0,0,1-1.88-1.51,177,177,0,0,1,27-36.76C201.69,336.33,202,337.19,202.2,338.06Z" style="fill:#fff;opacity:0.1"></path><path d="M148.12,314.32c.95,1.56,2,3.26,3,4.85s2.11,3.2,3.2,4.72a52.68,52.68,0,0,0,3.41,4.29,23.73,23.73,0,0,0,1.73,1.74,9.21,9.21,0,0,0,.81.65l.25.18.24.12a9.34,9.34,0,0,0,4.17.27,36.23,36.23,0,0,0,5.37-1,108.84,108.84,0,0,0,11-3.57l.08,0a2.19,2.19,0,0,1,2.82,1.27,2.22,2.22,0,0,1-.83,2.6,62,62,0,0,1-11,5.93,38.17,38.17,0,0,1-6.26,2,21.72,21.72,0,0,1-3.56.47,12.81,12.81,0,0,1-4.17-.45,8.14,8.14,0,0,1-1.16-.42,9.83,9.83,0,0,1-1.08-.54,16.82,16.82,0,0,1-1.65-1.07,26.16,26.16,0,0,1-2.71-2.3,49.24,49.24,0,0,1-4.37-4.87,78.26,78.26,0,0,1-7-10.49,4.4,4.4,0,0,1,7.58-4.46Z" style="fill:#eabdbd"></path><path d="M148.12,314.32c.95,1.56,2,3.26,3,4.85s2.11,3.2,3.2,4.72a52.68,52.68,0,0,0,3.41,4.29,23.73,23.73,0,0,0,1.73,1.74,9.21,9.21,0,0,0,.81.65l.25.18.24.12a9.34,9.34,0,0,0,4.17.27,36.23,36.23,0,0,0,5.37-1,108.84,108.84,0,0,0,11-3.57l.08,0a2.19,2.19,0,0,1,2.82,1.27,2.22,2.22,0,0,1-.83,2.6,62,62,0,0,1-11,5.93,38.17,38.17,0,0,1-6.26,2,21.72,21.72,0,0,1-3.56.47,12.81,12.81,0,0,1-4.17-.45,8.14,8.14,0,0,1-1.16-.42,9.83,9.83,0,0,1-1.08-.54,16.82,16.82,0,0,1-1.65-1.07,26.16,26.16,0,0,1-2.71-2.3,49.24,49.24,0,0,1-4.37-4.87,78.26,78.26,0,0,1-7-10.49,4.4,4.4,0,0,1,7.58-4.46Z" style="isolation:isolate;opacity:0.2"></path><path d="M146.81,312.21c2.24,1.51,5.44,7.35,5.44,7.35l-8,6.46-3.22-2.4Z" style="fill:#263238"></path><path d="M152.25,319.56l-5.13,4.16-2.83,2.3-.47-.35-2.74-2.05,3.4-6.79h0l2.32-4.62c1.78,1.19,4.16,5.11,5.06,6.69Z" style="fill:#fff;opacity:0.30000000000000004"></path><polygon points="153.17 320.09 147.24 324.54 144.28 326.76 143.74 325.74 143.82 325.67 146.98 323.01 151.87 318.9 152.25 318.58 153.17 320.09" style="fill:#263238"></polygon><path d="M147.24,324.54l-3,2.22-.56-1,.09-.07-2.74-2.05,3.4-6.79h0A24.92,24.92,0,0,1,147,323c.06.24.1.48.14.71A8.11,8.11,0,0,1,147.24,324.54Z" style="isolation:isolate;opacity:0.2"></path><path d="M179.55,327.59l5.09-3.65,1.24,7.22s-4,1.39-7.24-1.06Z" style="fill:#ffc3bd"></path><polygon points="190.8 324.25 190.72 329.79 185.88 331.16 184.64 323.94 190.8 324.25" style="fill:#ffc3bd"></polygon><polygon points="114.43 402.4 110.53 411.06 101.83 409.81 95.23 408.85 87.07 407.67 91.28 404.1 97.82 403.62 104.1 403.16 114.43 402.4" style="fill:#eec1bb"></polygon><polygon points="104.1 403.16 101.83 409.81 95.23 408.85 97.82 403.62 104.1 403.16" style="isolation:isolate;opacity:0.2"></polygon><path d="M95,404.32c.42.43-5.09,5.38-5.09,5.38s-6.49,0-10.32,2.43-4-1.19-.54-4.72l8.55-8.71C90,396.19,90.6,399.85,95,404.32Z" style="fill:#0294F5"></path><path d="M89.48,409.55h.08l.06,0h0a.05.05,0,0,1,0,0h0l0,.06a4.25,4.25,0,0,1,.43,2.73,1.17,1.17,0,0,1-.69.67.69.69,0,0,1-.78-.09c-.26-.29-.17-.94,0-1.59a3.12,3.12,0,0,1-1.29,1.05.79.79,0,0,1-.64-.07.69.69,0,0,1-.43-.68,1.08,1.08,0,0,1,.33-.59A9.48,9.48,0,0,1,89.48,409.55Zm-.38.57c-1.1.46-2.34,1.14-2.37,1.59,0,0,0,.16.24.31a.46.46,0,0,0,.33,0,2,2,0,0,0,.73-.51A8.81,8.81,0,0,0,89.1,410.12Zm.69,2.12a3.25,3.25,0,0,0-.25-2c-.47,1.07-.8,2.23-.57,2.47.07.08.25,0,.36,0a.83.83,0,0,0,.46-.44Z" style="fill:#0294F5"></path><path d="M172.14,404c-1.82,7-7,9.2-12.27,9.45-6.35.32-62.24-3.17-62.24-3.17l2.94-8.59,49.22-1.94L122.63,384.7S97,381,99.07,362.69a73.35,73.35,0,0,1,5.63-20.21c.21-.51.44-1,.66-1.5l26.47-1.52.19,1.27,1.48,9.53,3,8S176,389.06,172.14,404Z" style="fill:#263238"></path><path d="M137.7,359.26l-34.13,16.59c6.89,7.11,19.06,8.85,19.06,8.85l27.16,15.07-49.22,1.94-2.94,8.59s55.89,3.49,62.24,3.17c5.22-.25,10.45-2.42,12.27-9.45C175.6,390.63,144.29,364.56,137.7,359.26Z" style="isolation:isolate;opacity:0.2"></path><polygon points="163.27 387.67 161.93 390.41 156.37 401.69 151.86 410.85 147.56 410.64 150.01 400.61 152.8 389.15 153.42 386.6 163.27 387.67" style="fill:#eec1bb"></polygon><polygon points="161.93 390.41 156.37 401.69 150.01 400.61 152.8 389.15 161.93 390.41" style="isolation:isolate;opacity:0.2"></polygon><path d="M146.82,312.21s-2.5,20.13-13.63,36.05c0,0-23.72-3-29-4.53,3.29-9.72,5.25-16.2,6.61-34.43.33-4.4,4.31-6.93,8.65-6.15A51.24,51.24,0,0,1,132,305.62C137.33,307.34,146.82,312.21,146.82,312.21Z" style="fill:#263238"></path><path d="M99.59,361s-3,18.78,10.76,20.66c22.59,3.08,43.63-19.19,46.24-19.14s-7.51,36.18-7.51,36.18l10.11,1.51s18.26-44.51,13.83-54.1S115.59,361.35,99.59,361Z" style="fill:#263238"></path><path d="M147,407.47c0-.6,7.41-.14,7.41-.14s4.55,4.62,9,5.66,2,3.69-3,3.69H148.16C144.65,416.7,146.84,413.71,147,407.47Z" style="fill:#0294F5"></path><path d="M154.55,407.7l-.06,0h0s0,0,0-.06h0a.14.14,0,0,1,0-.06h0a.22.22,0,0,1,0-.08c0-.09.65-1.8,1.65-2.22a1.15,1.15,0,0,1,1,0c.33.16.5.37.48.62s-.55.78-1.15,1.1a3.09,3.09,0,0,1,1.66.18.82.82,0,0,1,.4.5.72.72,0,0,1-.18.79,1,1,0,0,1-.65.18A9.15,9.15,0,0,1,154.55,407.7Zm.68-.12c1.09.46,2.44.87,2.79.58,0,0,.12-.1,0-.39a.41.41,0,0,0-.21-.26,1.83,1.83,0,0,0-.87-.16A8.31,8.31,0,0,0,155.23,407.58Zm1-2a3.25,3.25,0,0,0-1.27,1.59c1.1-.41,2.15-1,2.17-1.32,0-.1-.16-.2-.26-.25a.88.88,0,0,0-.34-.08A.8.8,0,0,0,156.25,405.6Z" style="fill:#0294F5"></path><path d="M151.32,327.07c-1.43-1.9,3.59-8.62,6.75-8.22s9.76,2,13.09-.2,9.78-.08,12.18,1.44,3.5-1.44,6.48,3.85,4.78,3.91,5.72,13.82,11.28,25.6,19.21,26.89,10.5,7.38,14.66,5.17,13.73-.76,13.73-.76S238,379.62,227,380c0,0-6.33,17.41-19.82,15.44S182,383.47,176.52,360A51.57,51.57,0,0,0,151.32,327.07Z" style="fill:#0294F5"></path><path d="M243.14,369.06S238,379.61,227,380c0,0-6.33,17.42-19.82,15.44S182,383.48,176.52,360c-5-21.47-22-31.26-24.8-32.76l-.4-.2a1.77,1.77,0,0,1-.21-1.34h0c.45-2.65,4.34-7.21,7-6.87,2.22.28,6.11,1.15,9.38.89a8,8,0,0,0,3.71-1.09,5.46,5.46,0,0,1,2-.78c3.46-.68,8.17,1,10.14,2.22a3,3,0,0,0,1.28.47c1.28.16,2.27-.47,3.79,1.3a12.18,12.18,0,0,1,1.4,2.07c3,5.28,4.78,3.92,5.73,13.83.48,5,3.3,11.38,7,16.71,3.2,4.61,7,8.4,10.6,9.74a9.12,9.12,0,0,0,1.6.44c6.44,1.05,9.34,5.25,12.43,5.61h0a3.55,3.55,0,0,0,2.23-.44,8.57,8.57,0,0,1,1.71-.65h0C235.77,367.94,243.14,369.06,243.14,369.06Z" style="fill:#fff;opacity:0.9"></path><path d="M151.07,325.63c0,.05,0,.09,0,.09Z" style="isolation:isolate;opacity:0.2"></path><path d="M151.11,325.72h0Z" style="isolation:isolate;opacity:0.2"></path><path d="M243.14,369.06S238,379.61,227,380c0,0-6.33,17.42-19.82,15.44S182,383.48,176.52,360c-5-21.47-22-31.26-24.8-32.76-.32-.79-.52-1.32-.61-1.54,0,0,0,0,0,0,.38.22,3.24-3.46,8-2.54,5.12,1,12.74,7.87,15.82,21.41s8.88,40.83,22.16,47.23,24.84-1.59,26.68-6.69S233.46,368.18,243.14,369.06Z" style="isolation:isolate;opacity:0.1"></path><path d="M231.16,369.16c-4.29,1.89-9.7,10.89-16.35,10.82s-13.42-8.42-11.69-7.57,8,5.68,13.88,2.16S231.16,369.16,231.16,369.16Z" style="isolation:isolate;opacity:0.1"></path><path d="M177.61,331.56c-3.08-7.32-6.65-10.44-10.16-11.82a8,8,0,0,0,3.71-1.09,5.46,5.46,0,0,1,2-.78C179.63,322.53,181.3,340.28,177.61,331.56Z" style="isolation:isolate;opacity:0.1"></path><path d="M188.41,321.86c-.36,4.5-2.51,10.07-2.53,4.9a13.83,13.83,0,0,0-1.26-6.2C185.9,320.72,186.89,320.09,188.41,321.86Z" style="isolation:isolate;opacity:0.1"></path><path d="M213.15,364.21c-14.21,1.89-27.3-11.73-30.76-20.26-1.27-3.14,10,7.66,16.06,10.18,1.89.8,3.19.76,4.1.34C205.75,359.08,209.59,362.87,213.15,364.21Z" style="isolation:isolate;opacity:0.1"></path><path d="M148.73,328.05l5.22-3.47,1,7.27s-4.07,1.24-7.2-1.34Z" style="fill:#ffc3bd"></path><polygon points="160.09 325.12 159.81 330.65 154.92 331.85 153.95 324.58 160.09 325.12" style="fill:#ffc3bd"></polygon><path d="M146.81,312.21a91,91,0,0,1-3.48,14.84,79.41,79.41,0,0,1-10.14,21.21s-23.72-3-29-4.53c.62-1.83,1.19-3.54,1.72-5.24a95.2,95.2,0,0,0,3.77-17.71c.37-2.84.68-6,1-9.76,0-.56.08-1.13.13-1.72.33-4.4,4.31-6.93,8.66-6.14.61.11,1.92.14,4,.43a5,5,0,0,1,.56.07,52.48,52.48,0,0,1,8,2c1.31.42,2.87,1,4.48,1.73h0C141.44,309.44,146.81,312.21,146.81,312.21Z" style="fill:#fff;opacity:0.30000000000000004"></path><path d="M136.41,304.55a7.44,7.44,0,0,0-1.75,3.56,1.86,1.86,0,0,0,.49,1.69c-.47,3-4.45,2.72-4.45,2.72-4.85-4.73-4.73-8.24-4.73-8.24a7.5,7.5,0,0,0,5.67-4.19,15,15,0,0,0,1.53-4.14l5.54,6.07A23.12,23.12,0,0,0,136.41,304.55Z" style="fill:#eec1bb"></path><path d="M138.71,302a23.12,23.12,0,0,0-2.3,2.53,7.44,7.44,0,0,0-1.75,3.56,11.13,11.13,0,0,1-3-8,15,15,0,0,0,1.53-4.14Z" style="isolation:isolate;opacity:0.2"></path><path d="M138.12,276.68s.46-5.27-4.75-6-10.24,8.12-1.82,9.5S138.12,276.68,138.12,276.68Z" style="fill:#263238"></path><path d="M140.78,277.8s-1.77-2.44-6.05-1-4.57,5.82-3.69,5.85S140,279.81,140.78,277.8Z" style="fill:#0294F5"></path><path d="M135.49,298.58s-9.36-.15-7.27-12.53,21.55-12.27,21-1S135.49,298.58,135.49,298.58Z" style="fill:#263238"></path><path d="M132.41,285.42c-1.46,6.91-2.23,9.8.15,14.4,3.59,6.91,12.17,7.61,15.61,1.37,3.09-5.61,5-16-.77-20.84A9,9,0,0,0,132.41,285.42Z" style="fill:#eec1bb"></path><path d="M139.85,283.08c-5.44,3.09-.36,11.37-7.5,8s.08-12.36,5.36-12.9S139.85,283.08,139.85,283.08Z" style="fill:#263238"></path><path d="M137.7,278.31c-.9,4.75-.67,6.18,3.71,6.61a4.89,4.89,0,0,1,.51-3.28A4.73,4.73,0,0,0,143.1,285a17.3,17.3,0,0,1,3.66.35,4.54,4.54,0,0,1,.59-2,4.43,4.43,0,0,0,.73,2.4,11.92,11.92,0,0,1,3.25,2.08C153.23,283.19,147.48,275,137.7,278.31Z" style="fill:#263238"></path><path d="M142.12,290.71c-.15.58,0,1.14.38,1.26s.77-.25.92-.83,0-1.14-.38-1.26S142.27,290.14,142.12,290.71Z" style="fill:#263238"></path><path d="M148.83,293.05c-.15.57,0,1.13.38,1.25s.77-.25.92-.82,0-1.14-.38-1.26S149,292.47,148.83,293.05Z" style="fill:#263238"></path><path d="M149.58,292.2l1.42,0S150.05,293.09,149.58,292.2Z" style="fill:#263238"></path><path d="M146.71,293.37a17.18,17.18,0,0,0,1,4.31,2.36,2.36,0,0,1-2.05-.26Z" style="fill:#d4827d"></path><path d="M142,298.5a5.3,5.3,0,0,0,.9.39.15.15,0,0,0,.2-.12.18.18,0,0,0-.11-.22,4.87,4.87,0,0,1-3.08-2.95.18.18,0,0,0-.21-.13.18.18,0,0,0-.11.22A5.13,5.13,0,0,0,142,298.5Z" style="fill:#263238"></path><path d="M129.21,291.34a4.86,4.86,0,0,0,1.74,3.53c1.32,1,2.68-.43,2.9-2.34.19-1.73-.27-4.33-1.88-4.57S129.09,289.53,129.21,291.34Z" style="fill:#eec1bb"></path><path d="M141.5,287a.32.32,0,0,0,.27,0,2.51,2.51,0,0,1,2.4.07.32.32,0,0,0,.46-.11.38.38,0,0,0-.12-.49,3.19,3.19,0,0,0-3-.12.36.36,0,0,0-.15.47A.35.35,0,0,0,141.5,287Z" style="fill:#263238"></path><path d="M151.6,290.54a.31.31,0,0,0,.25,0,.33.33,0,0,0,.19-.44,3.62,3.62,0,0,0-2.21-2.34.32.32,0,0,0-.4.25.37.37,0,0,0,.25.43,2.93,2.93,0,0,1,1.74,1.87A.35.35,0,0,0,151.6,290.54Z" style="fill:#263238"></path><path d="M142.87,289.86l1.42,0S143.34,290.76,142.87,289.86Z" style="fill:#263238"></path><path d="M149.18,347.54c-.86.48-30.21,16.84-38.32,15s-8.39-14.3-8.39-14.3l2.6-9.51a3.08,3.08,0,0,0,.84-.26c4.71-2.21,13.31-16.9,13.31-16.9s1.71-13.63,4.21-18a5,5,0,0,1,.56.07,21.13,21.13,0,0,0-1,3.78c-.4,2.3-1.23,10.83-1.23,10.83l18.45,3.44c-1.52-11-3.61-14.17-3.73-14.36,4.25,3.2,6.81,19.7,6.81,19.7-1.11,6.93-5.9,17.79-7.38,20.16s-.77,3.42-.77,3.42Z" style="fill:#0294F5"></path><path d="M121.53,313.53s-8.14,6.35-11.85,7.25c.37-2.84.68-6,1-9.76,2.1-2.24,5.33-3.65,9.89-2.43A20,20,0,0,1,121.53,313.53Z" style="isolation:isolate;opacity:0.2"></path><path d="M118.87,309.1c.61,2.31,1.2,4.71,1.85,7s1.25,4.72,1.93,7,1.38,4.62,2.18,6.77c.4,1.07.8,2.13,1.23,3,.1.22.21.42.31.61l.14.24,0,.06,0,0,0-.06c-.16-.15-.27-.14-.14-.07a5.5,5.5,0,0,0,2.12.23,21.77,21.77,0,0,0,3.14-.4,60.1,60.1,0,0,0,6.77-1.79c2.29-.71,4.57-1.53,6.84-2.42s4.57-1.78,6.8-2.69l.05,0a2.19,2.19,0,0,1,2,3.85c-2.15,1.42-4.32,2.66-6.54,3.92s-4.51,2.35-6.85,3.41a54.62,54.62,0,0,1-7.4,2.77,27.45,27.45,0,0,1-4.19.87,12.53,12.53,0,0,1-5.26-.33,7.53,7.53,0,0,1-3.26-2l-.35-.42-.16-.2-.09-.13-.38-.54c-.22-.34-.43-.68-.62-1a37.2,37.2,0,0,1-1.86-3.75c-1.05-2.45-1.94-4.86-2.73-7.29s-1.54-4.84-2.23-7.27-1.31-4.85-1.85-7.37a4.39,4.39,0,0,1,8.54-2.07Z" style="fill:#eabdbd"></path><path d="M118.24,303.7c-3.95-1.58-10.52,1.42-8.68,11.32l11-1.72S121.46,305,118.24,303.7Z" style="fill:#263238"></path><path d="M118.24,303.7c-3.95-1.58-10.52,1.42-8.68,11.32l11-1.72S121.46,305,118.24,303.7Z" style="fill:#fff;opacity:0.30000000000000004"></path><polygon points="109.07 314.06 120.82 312.15 120.88 313.42 109.24 315.87 109.07 314.06" style="fill:#263238"></polygon></g><g id="freepik--washing-machine--inject-1"><rect x="277.14" y="286.04" width="147.51" height="130.65" transform="translate(701.79 702.73) rotate(180)" style="fill:#0294F5"></rect><rect x="277.14" y="286.04" width="147.51" height="130.65" transform="translate(701.79 702.73) rotate(180)" style="fill:#fafafa;opacity:0.6000000000000001"></rect><rect x="277.14" y="286.04" width="84.6" height="130.65" transform="translate(638.87 702.73) rotate(180)" style="fill:#fff;opacity:0.30000000000000004"></rect><rect x="277.14" y="298.47" width="84.6" height="1.72" style="opacity:0.2"></rect><rect x="277.14" y="397.37" width="147.51" height="2.21" style="opacity:0.2"></rect><path d="M340.44,292.19a1.52,1.52,0,1,1-1.52-1.52A1.52,1.52,0,0,1,340.44,292.19Z" style="opacity:0.2"></path><path d="M346.3,292.19a1.53,1.53,0,1,1-1.52-1.52A1.52,1.52,0,0,1,346.3,292.19Z" style="opacity:0.2"></path><circle cx="292.24" cy="292.19" r="1.52" style="opacity:0.2"></circle><path d="M299.62,292.19a1.52,1.52,0,1,1-1.52-1.52A1.52,1.52,0,0,1,299.62,292.19Z" style="opacity:0.2"></path><rect x="304.95" y="288.5" width="27.13" height="7.38" rx="1.08" style="opacity:0.2"></rect><rect x="280.94" y="303.63" width="7.01" height="10.33" rx="1.26" style="fill:#fff;opacity:0.30000000000000004"></rect><path d="M286.67,308c0,1.68-1,3-2.22,3s-2.21-1.36-2.21-3,1-3.05,2.21-3.05S286.67,306.3,286.67,308Z" style="opacity:0.1"></path><rect x="282.11" y="311.91" width="4.68" height="0.77" style="opacity:0.1"></rect><ellipse cx="318.51" cy="348.34" rx="27.64" ry="37.66" style="fill:#0294F5"></ellipse><path d="M341.49,348.34c0,16.58-8.56,30.34-19.66,32.65a16.62,16.62,0,0,1-3.32.35A16.91,16.91,0,0,1,310,379a17.76,17.76,0,0,1-1.9-1.25,28.7,28.7,0,0,1-8.76-11.3,38.83,38.83,0,0,1-2.11-5.79c-.25-.85-.46-1.71-.65-2.6a46.2,46.2,0,0,1-1-9.69c0-18.19,10.3-33,23-33a16.62,16.62,0,0,1,3.32.34,17.62,17.62,0,0,1,4.84,1.81c.54.29,1.06.62,1.59,1a23,23,0,0,1,3.48,2.91,32.16,32.16,0,0,1,7,11.33q.47,1.19.84,2.43A45.51,45.51,0,0,1,341.49,348.34Z" style="fill:#fff;opacity:0.30000000000000004"></path><path d="M341.49,348.34c0,16.58-8.56,30.34-19.66,32.65-11.1-2.32-19.65-16.08-19.65-32.65s8.55-30.33,19.65-32.65C332.93,318,341.49,331.77,341.49,348.34Z" style="opacity:0.2"></path><path d="M326.67,317.5A177.83,177.83,0,0,0,296.55,358a46.2,46.2,0,0,1-1-9.69c0-18.19,10.3-33,23-33a16.62,16.62,0,0,1,3.32.34A17.62,17.62,0,0,1,326.67,317.5Z" style="fill:#fff;opacity:0.1"></path><path d="M331.74,321.38a176.94,176.94,0,0,0-32.43,45,38.83,38.83,0,0,1-2.11-5.79,177.62,177.62,0,0,1,31.06-42.16A23,23,0,0,1,331.74,321.38Z" style="fill:#fff;opacity:0.1"></path><path d="M339.57,335.14A177.74,177.74,0,0,0,310,379a17.76,17.76,0,0,1-1.9-1.25,177.67,177.67,0,0,1,30.66-45Q339.2,333.9,339.57,335.14Z" style="fill:#fff;opacity:0.1"></path><path d="M346.15,348.34c0,20.8-12.37,37.66-27.64,37.66H318c15.06-.33,27.18-17.06,27.18-37.65S333.1,311,318,310.69h.47C333.78,310.68,346.15,327.54,346.15,348.34Z" style="opacity:0.2"></path></g><g id="freepik--Basket--inject-1"><path d="M311.52,398.36c6.06-5,5.3-10.88-2.2-15.08s-8.42-4.28-14.35-3-4.33-1.62-12.74-.27-14.48,4.05-13.05,7.87S302,406.15,311.52,398.36Z" style="fill:#263238"></path><path d="M311.52,398.36c6.06-5,5.3-10.88-2.2-15.08s-8.42-4.28-14.35-3-4.33-1.62-12.74-.27-14.48,4.05-13.05,7.87S302,406.15,311.52,398.36Z" style="fill:#fff;opacity:0.30000000000000004"></path><path d="M295.44,393.26c2.74-5.32-3.91-5.6-9.45-9.94s-9.4-10.61-14.74-7.08-4.8,5.79-13.42,7.08-10.71,1.59-14.56,3.38-6.14,1-6.19,4.8-5.45,6.83,10,7.2S292.93,398.14,295.44,393.26Z" style="fill:#0294F5"></path><path d="M295.44,393.26c2.74-5.32-3.91-5.6-9.45-9.94s-9.4-10.61-14.74-7.08-4.8,5.79-13.42,7.08-10.71,1.59-14.56,3.38-6.14,1-6.19,4.8-5.45,6.83,10,7.2S292.93,398.14,295.44,393.26Z" style="fill:#fff;opacity:0.5"></path><path d="M286.48,408.13c.5-3.2-6-7.29-11.47-11.64s-5.22-4.36-13.64-3.86-9.13.59-14.36-.45-6.32-.9-10.69.45-7,1.27-7.49,4.54-4.46,16.69,5.24,17.55S285.89,412,286.48,408.13Z" style="fill:#0294F5"></path><path d="M286.48,408.13c.5-3.2-6-7.29-11.47-11.64s-5.22-4.36-13.64-3.86-9.13.59-14.36-.45-6.32-.9-10.69.45-7,1.27-7.49,4.54-4.46,16.69,5.24,17.55S285.89,412,286.48,408.13Z" style="fill:#fff;opacity:0.30000000000000004"></path><path d="M312.23,411.22c-.41-2.35-5.69-4.45-11.12-4.94a27.9,27.9,0,0,1-13-4.22c-4.56-2.61-6.69-2.73-10.33,0s-5.21,3.43-10.55,3a49,49,0,0,0-8.77-.25c-4.78.15-5.24-.45-8.54,1.34s-4.68-.55-7.48,1.95-4.78,2.53-5.33,3.75-2.2,2.08.66,2.84,71.89,1.32,72.88,0S312.37,412,312.23,411.22Z" style="fill:#263238"></path><path d="M308.19,410.93c5.41-1.56,5.29-1.76,6.58-7.76s5.35-5.76-.81-7.85-9.1-2.89-14-3.14-8.72,1.34-13,.55-2.68-.4-9-1.78-8.13-2.52-12.76-.4-9.79-.51-7.52,4.79S295.26,414.65,308.19,410.93Z" style="fill:#0294F5"></path><path d="M257.71,395.34c1.13,2.63,10.37,7.4,21,11.09A102.42,102.42,0,0,0,296.3,411c4.7.72,8.9.8,11.89-.06l1.33-.39c4.07-1.25,4.09-1.91,5.25-7.36a12.9,12.9,0,0,1,1.39-3.65c1.34-2.38,2.3-2.67-2.2-4.2-6.16-2.09-9.1-2.89-14-3.14a46.07,46.07,0,0,0-7.79.6,17.45,17.45,0,0,1-5.2-.06c-4.26-.79-2.68-.39-9-1.78-4.79-1-7-1.95-9.78-1.4a12.63,12.63,0,0,0-3,1C260.6,392.67,255.43,390,257.71,395.34Z" style="opacity:0.4"></path><path d="M275.41,393c3.76,1.74,3.66,2.31,6.82,2.35s4.46-.34,7.22,1.83,5.25,2.28,4.46-1.38a5.94,5.94,0,0,0-1.72-3,17.45,17.45,0,0,1-5.2-.06c-4.26-.79-2.68-.39-9-1.78-4.79-1-7-1.95-9.78-1.4C265.54,391.65,272.07,391.44,275.41,393Z" style="fill:#fff;opacity:0.30000000000000004"></path><path d="M299.8,394.31c.34,2.87,4.37,4.15,5.42,7.12s-2.67,2.58,1.15,5.73a22.26,22.26,0,0,1,3.15,3.37c4.07-1.25,4.09-1.91,5.25-7.36a12.9,12.9,0,0,1,1.39-3.65c-2.77-2.09-5.57-.86-9.45-2.35C301.32,395.1,299.46,391.44,299.8,394.31Z" style="fill:#fff;opacity:0.30000000000000004"></path><path d="M276.57,402.93a16.5,16.5,0,0,1,2.13,3.5A102.42,102.42,0,0,0,296.3,411c.71-3.32-1.38-4-5.14-6.54-4.57-3.11-6.3-4.49-9.59-4.29s-3.19,1-6.56-1.69-5.77-4.55-7.43-4.55S272.68,398.1,276.57,402.93Z" style="fill:#fff;opacity:0.30000000000000004"></path><path d="M235.18,383.83a1,1,0,0,1,0-1l2.58-4.55a4,4,0,0,1,3.51-2h10a4,4,0,0,1,3.14,1.5l3.84,4.76a1,1,0,0,1,.13,1.05,1,1,0,0,1-.9.58l-21.44.19h0A1,1,0,0,1,235.18,383.83ZM252.86,379a2,2,0,0,0-1.58-.76h-10a2.05,2.05,0,0,0-1.77,1l-1.73,3,17.64-.16Z" style="fill:#0294F5"></path><path d="M310.51,384.32l-21.44-.19a1,1,0,0,1-.9-.58,1,1,0,0,1,.13-1.05l3.85-4.76a4,4,0,0,1,3.13-1.5h10a4,4,0,0,1,3.51,2l2.59,4.55a1,1,0,0,1,0,1,1,1,0,0,1-.86.49Zm-15.23-6.08a2,2,0,0,0-1.58.76l-2.54,3.15,17.63.16-1.73-3a2.05,2.05,0,0,0-1.77-1Z" style="fill:#0294F5"></path><g style="opacity:0.2"><path d="M235.18,383.83a1,1,0,0,1,0-1l2.58-4.55a4,4,0,0,1,3.51-2h10a4,4,0,0,1,3.14,1.5l3.84,4.76a1,1,0,0,1,.13,1.05,1,1,0,0,1-.9.58l-21.44.19h0A1,1,0,0,1,235.18,383.83ZM252.86,379a2,2,0,0,0-1.58-.76h-10a2.05,2.05,0,0,0-1.77,1l-1.73,3,17.64-.16Z"></path></g><g style="opacity:0.2"><path d="M310.51,384.32l-21.44-.19a1,1,0,0,1-.9-.58,1,1,0,0,1,.13-1.05l3.85-4.76a4,4,0,0,1,3.13-1.5h10a4,4,0,0,1,3.51,2l2.59,4.55a1,1,0,0,1,0,1,1,1,0,0,1-.86.49Zm-15.23-6.08a2,2,0,0,0-1.58.76l-2.54,3.15,17.63.16-1.73-3a2.05,2.05,0,0,0-1.77-1Z"></path></g><path d="M221.22,384.06l8,31.16a2,2,0,0,0,1.9,1.47h81.67a2,2,0,0,0,1.9-1.47l8-31.16a1.56,1.56,0,0,0-1.51-2H222.74A1.57,1.57,0,0,0,221.22,384.06Zm86.06,27.75,7-25.12a1,1,0,0,1,1.23-.7,1,1,0,0,1,.7,1.23l-7,25.12a1,1,0,0,1-1,.73l-.27,0A1,1,0,0,1,307.28,411.81Zm-6.14,0,6.21-25.12a1,1,0,1,1,1.94.48l-6.21,25.12a1,1,0,0,1-1,.76l-.24,0A1,1,0,0,1,301.14,411.83Zm-6.14,0,5.4-25.12a1,1,0,0,1,2,.42L297,412.28a1,1,0,0,1-1,.79.86.86,0,0,1-.22,0A1,1,0,0,1,295,411.86Zm-6.14,0,4.6-25.12a1,1,0,0,1,1.16-.8,1,1,0,0,1,.81,1.17l-4.61,25.12a1,1,0,0,1-1,.81h-.18A1,1,0,0,1,288.86,411.89Zm-6.15,0,3.81-25.12a1,1,0,1,1,2,.29l-3.8,25.12a1,1,0,0,1-1,.85h-.15A1,1,0,0,1,282.71,411.93Zm-6.14,0,3-25.12a1,1,0,1,1,2,.23l-3,25.12a1,1,0,0,1-1,.88h-.12A1,1,0,0,1,276.57,412Zm-14.35.07,1-25.12a1,1,0,0,1,2,.08l-1,25.12a1,1,0,0,1-1,1h0A1,1,0,0,1,262.22,412ZM256.28,387a1,1,0,0,1,1-1h0a1,1,0,0,1,1,1l.2,25.12a1,1,0,0,1-1,1h0a1,1,0,0,1-1-1Zm-6.93.05a1,1,0,0,1,2-.11l1.4,25.12a1,1,0,0,1-.95,1.05h-.05a1,1,0,0,1-1-.94Zm-6.94.05a1,1,0,0,1,.9-1.1,1,1,0,0,1,1.09.89L247,412a1,1,0,0,1-.9,1.1H246a1,1,0,0,1-1-.89Zm-3.12,25.16-3.81-25.12a1,1,0,0,1,.84-1.13,1,1,0,0,1,1.14.84l3.8,25.12a1,1,0,0,1-.84,1.13h-.15A1,1,0,0,1,239.29,412.22Zm-10.74-25.07a1,1,0,1,1,2-.39l5,25.12a1,1,0,0,1-.79,1.18h-.19a1,1,0,0,1-1-.8Z" style="fill:#0294F5"></path><path d="M221.22,384.06l8,31.16a2,2,0,0,0,1.9,1.47h36.4a2,2,0,0,0,1.95-1.74L273,383.84a1.57,1.57,0,0,0-1.56-1.74h-48.7A1.57,1.57,0,0,0,221.22,384.06Zm41,28,1-25.12a1,1,0,0,1,2,.08l-1,25.12a1,1,0,0,1-1,1h0A1,1,0,0,1,262.22,412ZM256.28,387a1,1,0,0,1,1-1h0a1,1,0,0,1,1,1l.2,25.12a1,1,0,0,1-1,1h0a1,1,0,0,1-1-1Zm-6.93.05a1,1,0,0,1,2-.11l1.4,25.12a1,1,0,0,1-.95,1.05h-.05a1,1,0,0,1-1-.94Zm-6.94.05a1,1,0,0,1,.9-1.1,1,1,0,0,1,1.09.89L247,412a1,1,0,0,1-.9,1.1H246a1,1,0,0,1-1-.89Zm-3.12,25.16-3.81-25.12a1,1,0,0,1,.84-1.13,1,1,0,0,1,1.14.84l3.8,25.12a1,1,0,0,1-.84,1.13h-.15A1,1,0,0,1,239.29,412.22Zm-10.74-25.07a1,1,0,1,1,2-.39l5,25.12a1,1,0,0,1-.79,1.18h-.19a1,1,0,0,1-1-.8Z" style="opacity:0.2"></path></g></svg>
