<svg xmlns="http://www.w3.org/2000/svg" version="1.1" xmlns:xlink="http://www.w3.org/1999/xlink" xmlns:svgjs="http://svgjs.dev/svgjs" width="1440" height="300" preserveAspectRatio="none" viewBox="0 0 1440 300"><g mask="url(&quot;#SvgjsMask1451&quot;)" fill="none"><rect width="1440" height="300" x="0" y="0" fill="rgba(255, 255, 255, 1)"></rect><path d="M1512 300L0 300 L0 63.58Q63.16 54.74, 72 117.9Q142.62 68.52, 192 139.14Q230.06 57.2, 312 95.25Q360.89 24.15, 432 73.04Q512.07 33.11, 552 113.18Q617.25 58.44, 672 123.69Q696.99 76.67, 744 101.66Q822.63 60.29, 864 138.91Q892.75 95.66, 936 124.42Q949 65.43, 1008 78.43Q1077.99 28.43, 1128 98.42Q1205.4 55.82, 1248 133.23Q1257.1 70.33, 1320 79.43Q1349.77 37.2, 1392 66.97Q1488.5 43.48, 1512 139.98z" fill="#182f5d"></path><path d="M1560 300L0 300 L0 199.91Q45.03 124.94, 120 169.98Q163.06 93.04, 240 136.09Q287.16 111.25, 312 158.41Q365.81 140.22, 384 194.03Q437.61 127.64, 504 181.26Q542.38 99.64, 624 138.03Q689.32 83.35, 744 148.67Q792.6 77.27, 864 125.86Q958.43 100.29, 984 194.72Q1033.41 124.14, 1104 173.55Q1138.45 88, 1224 122.45Q1270.83 97.28, 1296 144.11Q1354.62 130.73, 1368 189.34Q1388.73 138.07, 1440 158.81Q1484.47 83.28, 1560 127.75z" fill="#25467d"></path><path d="M1536 300L0 300 L0 218.01Q43.46 189.47, 72 232.93Q113.47 154.4, 192 195.86Q233.69 165.55, 264 207.23Q307.38 178.61, 336 221.99Q390.67 204.66, 408 259.34Q440.96 172.3, 528 205.26Q603.33 160.59, 648 235.92Q696.99 212.91, 720 261.9Q721.32 191.21, 792 192.53Q883.95 164.48, 912 256.42Q930.2 202.62, 984 220.82Q1028.16 144.99, 1104 189.15Q1199.39 164.55, 1224 259.94Q1278.2 194.14, 1344 248.34Q1366.78 199.12, 1416 221.89Q1462.74 148.63, 1536 195.38z" fill="rgba(2, 148, 245, 1)"></path><path d="M1512 300L0 300 L0 311.52Q35.69 227.21, 120 262.9Q185.57 208.47, 240 274.04Q287.29 249.33, 312 296.61Q357.37 269.98, 384 315.35Q410.94 222.29, 504 249.23Q582.53 207.76, 624 286.29Q671.31 213.6, 744 260.9Q833.47 230.37, 864 319.83Q889.64 273.48, 936 299.12Q968.6 211.72, 1056 244.31Q1105.57 221.88, 1128 271.45Q1206.79 230.24, 1248 309.03Q1275.41 264.44, 1320 291.85Q1364.61 216.46, 1440 261.07Q1482.26 231.33, 1512 273.59z" fill="white"></path></g><defs><mask id="SvgjsMask1451"><rect width="1440" height="300" fill="#ffffff"></rect></mask></defs></svg>