<svg xmlns="http://www.w3.org/2000/svg" version="1.1" xmlns:xlink="http://www.w3.org/1999/xlink" xmlns:svgjs="http://svgjs.dev/svgjs" width="1440" height="300" preserveAspectRatio="none" viewBox="0 0 1440 300"><g mask="url(&quot;#SvgjsMask1045&quot;)" fill="none"><rect width="1440" height="300" x="0" y="0" fill="rgba(255, 255, 255, 1)"></rect><path d="M1560 300L0 300 L0 210.88Q82.3 173.18, 120 255.47Q120.02 183.49, 192 183.51Q218.55 138.06, 264 164.61Q357.81 138.42, 384 232.22Q408.51 184.73, 456 209.24Q473.83 155.07, 528 172.91Q574.19 147.1, 600 193.29Q691.55 164.84, 720 256.39Q738.38 202.77, 792 221.16Q835.78 144.94, 912 188.73Q955.73 160.46, 984 204.19Q1033.8 181.99, 1056 231.78Q1072.88 176.66, 1128 193.54Q1200.27 145.81, 1248 218.08Q1294.84 192.92, 1320 239.75Q1346.39 146.14, 1440 172.54Q1506 118.54, 1560 184.54z" fill="rgba(2, 148, 245, 1)"></path><path d="M1464 300L0 300 L0 302.12Q53.53 235.65, 120 289.19Q197.94 247.13, 240 325.08Q251.12 264.2, 312 275.32Q331.33 222.65, 384 241.99Q457.26 243.25, 456 316.51Q492.85 233.36, 576 270.2Q619.24 241.44, 648 284.68Q692.95 209.63, 768 254.58Q798.74 213.31, 840 244.05Q893.77 225.82, 912 279.59Q970.31 265.9, 984 324.21Q1004.97 273.18, 1056 294.15Q1074.4 240.55, 1128 258.95Q1152.89 211.84, 1200 236.73Q1254.71 219.44, 1272 274.16Q1346.52 228.68, 1392 303.2Q1435.04 274.24, 1464 317.28z" fill="rgba(255, 255, 255, 1)"></path></g><defs><mask id="SvgjsMask1045"><rect width="1440" height="300" fill="#ffffff"></rect></mask></defs></svg>