<svg xmlns="http://www.w3.org/2000/svg" version="1.1" xmlns:xlink="http://www.w3.org/1999/xlink" xmlns:svgjs="http://svgjs.dev/svgjs" width="1024" height="438" preserveAspectRatio="none" viewBox="0 0 1024 438"><g mask="url(&quot;#SvgjsMask3186&quot;)" fill="none"><rect width="1024" height="438" x="0" y="0" fill="rgba(255, 255, 255, 1)"></rect><path d="M 0,132 C 68.4,125.4 205.2,101 342,99 C 478.8,97 547.6,126.6 684,122 C 820.4,117.4 956,85.2 1024,76L1024 438L0 438z" fill="rgba(0, 0, 0, 1)"></path><path d="M 0,293 C 51.2,315 153.6,399 256,403 C 358.4,407 409.6,323.4 512,313 C 614.4,302.6 665.6,351.8 768,351 C 870.4,350.2 972.8,317.4 1024,309L1024 438L0 438z" fill="rgba(255, 255, 255, 1)"></path></g><defs><mask id="SvgjsMask3186"><rect width="1024" height="438" fill="#ffffff"></rect></mask></defs></svg>