<svg width="1920" height="1080" viewBox="0 0 1920 1080" xmlns="http://www.w3.org/2000/svg"><rect width="1920" height="1080" fill="#0294f5"/><path d="M 0,1080 C 0,1080 0,180 0,180 C 105.71025641025639,194.81794871794872 211.42051282051278,209.63589743589745 322,214 C 432.5794871794872,218.36410256410255 548.0282051282052,212.274358974359 665,195 C 781.9717948717948,177.725641025641 900.4666666666667,149.26666666666665 983,138 C 1065.5333333333333,126.73333333333333 1112.1051282051283,132.65897435897435 1224,147 C 1335.8948717948717,161.34102564102565 1513.1128205128205,184.09743589743593 1640,191 C 1766.8871794871795,197.90256410256407 1843.4435897435897,188.95128205128202 1920,180 C 1920,180 1920,1080 1920,1080 Z" fill="#ffffff" opacity="0.09999999999999999"/><path d="M 0,1080 C 0,1080 0,360 0,360 C 87.40512820512822,381.32307692307694 174.81025641025644,402.6461538461539 280,399 C 385.18974358974356,395.3538461538461 508.16410256410256,366.73846153846154 614,368 C 719.8358974358974,369.26153846153846 808.5333333333334,400.40000000000003 904,406 C 999.4666666666666,411.59999999999997 1101.702564102564,391.66153846153844 1232,383 C 1362.297435897436,374.33846153846156 1520.6564102564103,376.95384615384614 1640,375 C 1759.3435897435897,373.04615384615386 1839.6717948717949,366.5230769230769 1920,360 C 1920,360 1920,1080 1920,1080 Z" fill="#ffffff" opacity="0.19999999999999998"/><path d="M 0,1080 C 0,1080 0,540 0,540 C 123.8025641025641,547.5435897435898 247.6051282051282,555.0871794871795 344,561 C 440.3948717948718,566.9128205128205 509.3820512820512,571.1948717948719 606,553 C 702.6179487179488,534.8051282051281 826.8666666666668,494.13333333333327 944,493 C 1061.1333333333332,491.86666666666673 1171.151282051282,530.2717948717949 1279,530 C 1386.848717948718,529.7282051282051 1492.5282051282052,490.7794871794871 1599,486 C 1705.4717948717948,481.2205128205129 1812.7358974358974,510.61025641025645 1920,540 C 1920,540 1920,1080 1920,1080 Z" fill="#ffffff" opacity="0.3"/><path d="M 0,1080 C 0,1080 0,720 0,720 C 102.83333333333331,696.5564102564103 205.66666666666663,673.1128205128206 313,691 C 420.33333333333337,708.8871794871794 532.1666666666667,768.1051282051282 630,773 C 727.8333333333333,777.8948717948718 811.6666666666665,728.4666666666667 912,717 C 1012.3333333333335,705.5333333333333 1129.1666666666667,732.0282051282052 1244,721 C 1358.8333333333333,709.9717948717948 1471.6666666666665,661.4205128205127 1584,655 C 1696.3333333333335,648.5794871794873 1808.1666666666667,684.2897435897437 1920,720 C 1920,720 1920,1080 1920,1080 Z" fill="#ffffff" opacity="0.39999999999999997"/><path d="M 0,1080 C 0,1080 0,900 0,900 C 109.11282051282049,910.0564102564102 218.22564102564098,920.1128205128205 334,916 C 449.774358974359,911.8871794871795 572.2102564102564,893.6051282051283 665,879 C 757.7897435897436,864.3948717948717 820.9333333333333,853.4666666666666 910,849 C 999.0666666666667,844.5333333333334 1114.0564102564103,846.5282051282051 1249,856 C 1383.9435897435897,865.4717948717949 1538.8410256410257,882.4205128205127 1654,891 C 1769.1589743589743,899.5794871794873 1844.5794871794872,899.7897435897437 1920,900 C 1920,900 1920,1080 1920,1080 Z" fill="#ffffff" opacity="0.49999999999999994"/></svg>