<svg xmlns="http://www.w3.org/2000/svg" version="1.1" xmlns:xlink="http://www.w3.org/1999/xlink" xmlns:svgjs="http://svgjs.dev/svgjs" width="2560" height="1200" preserveAspectRatio="none" viewBox="0 0 2560 1200"><g mask="url(&quot;#SvgjsMask1100&quot;)" fill="none"><rect width="2560" height="1200" x="0" y="0" fill="rgba(2, 148, 245, 1)"></rect><path d="M0,733.494C135.848,732.039,237.871,620.16,358.935,558.514C496.27,488.583,695.334,486.974,759.4,346.806C823.463,206.646,689.831,56.138,657.417,-94.522C627.829,-232.047,638.067,-373.317,577.183,-500.131C501.665,-657.426,427.608,-840.827,266.708,-908.325C103.89,-976.628,-81.443,-903.503,-248.566,-846.538C-409.943,-791.532,-560.662,-711.256,-677.029,-586.649C-796.371,-458.857,-897.76,-305.604,-916.117,-131.718C-934.189,39.471,-883.197,219.567,-776.391,354.566C-678.521,478.27,-505.666,497.069,-363.91,566.255C-241.457,626.02,-136.251,734.953,0,733.494" fill="#027cce"></path><path d="M2560 1935.653C2700.791 1924.864 2835.838 1889.983 2958.7110000000002 1820.4070000000002 3087.057 1747.732 3204.893 1655.8609999999999 3279.165 1528.432 3358.183 1392.859 3389.244 1237.604 3389.8559999999998 1080.685 3390.544 904.371 3379.64 721.012 3282.888 573.614 3179.926 416.755 3027.621 260.27 2840.691 244.053 2654.925 227.937 2517.671 406.602 2352.372 492.88599999999997 2223.82 559.989 2094.365 609.635 1977.045 694.867 1827.702 803.363 1626.4679999999998 881.231 1574.15 1058.256 1521.463 1236.53 1611.057 1431.462 1713.508 1586.58 1808.0230000000001 1729.681 1961.438 1819.301 2119.982 1884.681 2259.307 1942.135 2409.735 1947.1680000000001 2560 1935.653" fill="#21a5fd"></path></g><defs><mask id="SvgjsMask1100"><rect width="2560" height="1200" fill="#ffffff"></rect></mask></defs></svg>