<svg xmlns="http://www.w3.org/2000/svg" version="1.1" xmlns:xlink="http://www.w3.org/1999/xlink" xmlns:svgjs="http://svgjs.dev/svgjs" width="2560" height="500" preserveAspectRatio="none" viewBox="0 0 2560 500"><g mask="url(&quot;#SvgjsMask2411&quot;)" fill="none"><rect width="2560" height="500" x="0" y="0" fill="rgba(255, 255, 255, 1)"></rect><path d="M 0,213 C 170.8,185.8 512.4,88.6 854,77 C 1195.6,65.4 1366.8,164 1708,155 C 2049.2,146 2389.6,56.6 2560,32L2560 500L0 500z" fill="rgba(2, 148, 245, 1)"></path><path d="M 0,443 C 102.4,413 307.2,296.2 512,293 C 716.8,289.8 819.2,432 1024,427 C 1228.8,422 1331.2,262.8 1536,268 C 1740.8,273.2 1843.2,449.8 2048,453 C 2252.8,456.2 2457.6,317.8 2560,284L2560 500L0 500z" fill="rgba(255, 255, 255, 1)"></path></g><defs><mask id="SvgjsMask2411"><rect width="2560" height="500" fill="#ffffff"></rect></mask></defs></svg>