<svg xmlns="http://www.w3.org/2000/svg" version="1.1" xmlns:xlink="http://www.w3.org/1999/xlink" xmlns:svgjs="http://svgjs.dev/svgjs" width="2560" height="300" preserveAspectRatio="none" viewBox="0 0 2560 300"><g mask="url(&quot;#SvgjsMask1744&quot;)" fill="none"><path d="M10 300L310 0L794.5 0L494.5 300z" fill="url(&quot;#SvgjsLinearGradient1745&quot;)"></path><path d="M431.40000000000003 300L731.4000000000001 0L819.9000000000001 0L519.9000000000001 300z" fill="url(&quot;#SvgjsLinearGradient1745&quot;)"></path><path d="M899.8000000000001 300L1199.8000000000002 0L1732.3000000000002 0L1432.3000000000002 300z" fill="url(&quot;#SvgjsLinearGradient1745&quot;)"></path><path d="M1309.2 300L1609.2 0L1973.7 0L1673.7 300z" fill="url(&quot;#SvgjsLinearGradient1745&quot;)"></path><path d="M2499 300L2199 0L2122.5 0L2422.5 300z" fill="url(&quot;#SvgjsLinearGradient1746&quot;)"></path><path d="M2111.6 300L1811.6 0L1426.1 0L1726.1 300z" fill="url(&quot;#SvgjsLinearGradient1746&quot;)"></path><path d="M1664.1999999999998 300L1364.1999999999998 0L1257.6999999999998 0L1557.6999999999998 300z" fill="url(&quot;#SvgjsLinearGradient1746&quot;)"></path><path d="M1213.8 300L913.8 0L792.3 0L1092.3 300z" fill="url(&quot;#SvgjsLinearGradient1746&quot;)"></path><path d="M2272.0426873177094 300L2560 12.042687317709351L2560 300z" fill="url(&quot;#SvgjsLinearGradient1745&quot;)"></path><path d="M0 300L287.95731268229065 300L 0 12.042687317709351z" fill="url(&quot;#SvgjsLinearGradient1746&quot;)"></path></g><defs><mask id="SvgjsMask1744"><rect width="2560" height="300" fill="#ffffff"></rect></mask><linearGradient x1="0%" y1="100%" x2="100%" y2="0%" id="SvgjsLinearGradient1745"><stop stop-color="rgba(2, 148, 245, 1)" offset="0"></stop><stop stop-opacity="0" stop-color="rgba(2, 148, 245, 1)" offset="0.66"></stop></linearGradient><linearGradient x1="100%" y1="100%" x2="0%" y2="0%" id="SvgjsLinearGradient1746"><stop stop-color="rgba(2, 148, 245, 1)" offset="0"></stop><stop stop-opacity="0" stop-color="rgba(2, 148, 245, 1)" offset="0.66"></stop></linearGradient></defs></svg>